<?xml version="1.0" encoding="UTF-8" standalone="no"?>
<!DOCTYPE svg PUBLIC "-//W3C//DTD SVG 1.1//EN" "http://www.w3.org/Graphics/SVG/1.1/DTD/svg11.dtd">
<svg width="100%" height="100%" viewBox="0 0 1250 625" version="1.1" xmlns="http://www.w3.org/2000/svg" xmlns:xlink="http://www.w3.org/1999/xlink" xml:space="preserve" xmlns:serif="http://www.serif.com/" style="fill-rule:evenodd;clip-rule:evenodd;stroke-linejoin:round;stroke-miterlimit:2;">
    <g transform="matrix(1,0,0,1,-2,-1244)">
        <g id="Dark-background" serif:id="Dark background" transform="matrix(0.6,0,0,0.3,2,1244)">
            <rect x="0" y="0" width="2083.33" height="2083.33"/>
            <clipPath id="_clip1">
                <rect x="0" y="0" width="2083.33" height="2083.33"/>
            </clipPath>
            <g clip-path="url(#_clip1)">
                <g transform="matrix(5.77204,0,1.85037e-16,11.5441,-3998.2,-8009.79)">
                    <text x="692.588px" y="821.704px" style="font-family:'CommitMono-Bold', 'CommitMono';font-weight:700;font-size:120.312px;fill:white;">[/t/]</text>
                </g>
                <g transform="matrix(0.992063,0,-0.784708,4.02414,603.955,-3008.19)">
                    <rect x="776" y="841.667" width="84" height="331.333" style="fill:rgb(30,237,116);"/>
                </g>
                <g transform="matrix(0.992063,0,-4.7742,24.4831,4623.44,-23620.9)">
                    <path d="M790.645,1173L787.915,1172.43L780.915,1172.43L782.147,1172.69L776,1172.52L776,1173L783.514,1173L783.514,1172.97L783.645,1173L790.645,1173ZM797.645,1173L804.645,1173L801.915,1172.43L794.915,1172.43L797.645,1173ZM818.645,1173L815.915,1172.43L808.915,1172.43L811.645,1173L818.645,1173ZM832.645,1173L829.915,1172.43L822.915,1172.43L825.645,1173L832.645,1173ZM846.645,1173L843.915,1172.43L836.915,1172.43L839.645,1173L846.645,1173ZM853.645,1173L860,1173L860,1172.95L859.73,1172.94L857.27,1172.43L850.915,1172.43L852.486,1172.76L852.486,1172.79L852.744,1172.81L853.645,1173ZM860,1171.89L852.486,1171.69L852.486,1172.22L860,1172.42L860,1171.89ZM776,1171.46L776,1171.99L783.514,1172.2L783.514,1171.67L776,1171.46ZM860,1170.84L852.486,1170.63L852.486,1171.16L860,1171.37L860,1170.84ZM776,1170.41L776,1170.93L783.514,1171.14L783.514,1170.61L776,1170.41ZM860,1169.78L852.486,1169.57L852.486,1170.1L860,1170.31L860,1169.78ZM776,1169.35L776,1169.88L783.514,1170.08L783.514,1169.56L776,1169.35ZM860,1168.72L852.486,1168.52L852.486,1169.05L860,1169.25L860,1168.72ZM776,1168.29L776,1168.82L783.514,1169.03L783.514,1168.5L776,1168.29ZM860,1167.67L852.486,1167.46L852.486,1167.99L860,1168.19L860,1167.67ZM776,1167.24L776,1167.76L783.514,1167.97L783.514,1167.44L776,1167.24ZM860,1166.61L852.486,1166.4L852.486,1166.93L860,1167.14L860,1166.61ZM776,1166.18L776,1166.71L783.514,1166.91L783.514,1166.38L776,1166.18ZM860,1165.55L852.486,1165.35L852.486,1165.88L860,1166.08L860,1165.55ZM776,1165.12L776,1165.65L783.514,1165.86L783.514,1165.33L776,1165.12ZM860,1164.5L852.486,1164.29L852.486,1164.82L860,1165.02L860,1164.5ZM776,1164.06L776,1164.59L783.514,1164.8L783.514,1164.27L776,1164.06ZM860,1163.44L852.486,1163.23L852.486,1163.76L860,1163.97L860,1163.44ZM776,1163.01L776,1163.54L783.514,1163.74L783.514,1163.21L776,1163.01ZM860,1162.38L852.486,1162.18L852.486,1162.7L860,1162.91L860,1162.38ZM776,1161.95L776,1162.48L783.514,1162.68L783.514,1162.16L776,1161.95ZM860,1161.33L852.486,1161.12L852.486,1161.65L860,1161.85L860,1161.33ZM776,1160.89L776,1161.42L783.514,1161.63L783.514,1161.1L776,1160.89ZM860,1160.27L852.486,1160.06L852.486,1160.59L860,1160.8L860,1160.27ZM776,1159.84L776,1160.36L783.514,1160.57L783.514,1160.04L776,1159.84ZM860,1159.21L852.486,1159L852.486,1159.53L860,1159.74L860,1159.21ZM776,1158.78L776,1159.31L783.514,1159.51L783.514,1158.99L776,1158.78ZM860,1158.15L852.486,1157.95L852.486,1158.48L860,1158.68L860,1158.15ZM776,1157.72L776,1158.25L783.514,1158.46L783.514,1157.93L776,1157.72ZM860,1157.1L852.486,1156.89L852.486,1157.42L860,1157.62L860,1157.1ZM776,1156.66L776,1157.19L783.514,1157.4L783.514,1156.87L776,1156.66ZM860,1156.04L852.486,1155.83L852.486,1156.36L860,1156.57L860,1156.04ZM776,1155.61L776,1156.14L783.514,1156.34L783.514,1155.81L776,1155.61ZM860,1154.98L852.486,1154.78L852.486,1155.31L860,1155.51L860,1154.98ZM776,1154.55L776,1155.08L783.514,1155.29L783.514,1154.76L776,1154.55ZM860,1153.93L852.486,1153.72L852.486,1154.25L860,1154.45L860,1153.93ZM776,1153.49L776,1154.02L783.514,1154.23L783.514,1153.7L776,1153.49ZM860,1152.87L852.486,1152.66L852.486,1153.19L860,1153.4L860,1152.87ZM776,1152.44L776,1152.96L783.514,1153.17L783.514,1152.64L776,1152.44ZM860,1151.81L852.486,1151.61L852.486,1152.13L860,1152.34L860,1151.81ZM776,1151.38L776,1151.91L783.514,1152.11L783.514,1151.59L776,1151.38ZM860,1150.76L852.486,1150.55L852.486,1151.08L860,1151.28L860,1150.76ZM776,1150.32L776,1150.85L783.514,1151.06L783.514,1150.53L776,1150.32ZM860,1149.7L852.486,1149.49L852.486,1150.02L860,1150.23L860,1149.7ZM776,1149.27L776,1149.79L783.514,1150L783.514,1149.47L776,1149.27ZM860,1148.64L852.486,1148.43L852.486,1148.96L860,1149.17L860,1148.64ZM776,1148.21L776,1148.74L783.514,1148.94L783.514,1148.41L776,1148.21ZM860,1147.58L852.486,1147.38L852.486,1147.91L860,1148.11L860,1147.58ZM776,1147.15L776,1147.68L783.514,1147.89L783.514,1147.36L776,1147.15ZM860,1146.53L852.486,1146.32L852.486,1146.85L860,1147.06L860,1146.53ZM776,1146.1L776,1146.62L783.514,1146.83L783.514,1146.3L776,1146.1ZM860,1145.47L852.486,1145.26L852.486,1145.79L860,1146L860,1145.47ZM776,1145.04L776,1145.57L783.514,1145.77L783.514,1145.24L776,1145.04ZM860,1144.41L852.486,1144.21L852.486,1144.74L860,1144.94L860,1144.41ZM776,1143.98L776,1144.51L783.514,1144.71L783.514,1144.19L776,1143.98ZM860,1143.36L852.486,1143.15L852.486,1143.68L860,1143.88L860,1143.36ZM776,1142.92L776,1143.45L783.514,1143.66L783.514,1143.13L776,1142.92ZM860,1142.3L852.486,1142.09L852.486,1142.62L860,1142.83L860,1142.3ZM776,1141.87L776,1142.39L783.514,1142.6L783.514,1142.07L776,1141.87ZM860,1141.24L852.486,1141.04L852.486,1141.56L860,1141.77L860,1141.24ZM776,1140.81L776,1141.34L783.514,1141.54L783.514,1141.02L776,1140.81ZM860,1140.18L852.486,1139.98L852.486,1140.51L860,1140.71L860,1140.18ZM776,1139.75L776,1140.28L783.514,1140.49L783.514,1139.96L776,1139.75ZM860,1139.13L852.486,1138.92L852.486,1139.45L860,1139.66L860,1139.13ZM776,1138.69L776,1139.22L783.514,1139.43L783.514,1138.9L776,1138.69ZM860,1138.07L852.486,1137.86L852.486,1138.39L860,1138.6L860,1138.07ZM776,1137.64L776,1138.17L783.514,1138.37L783.514,1137.84L776,1137.64ZM860,1137.01L852.486,1136.81L852.486,1137.34L860,1137.54L860,1137.01ZM776,1136.58L776,1137.11L783.514,1137.32L783.514,1136.79L776,1136.58ZM860,1135.95L852.486,1135.75L852.486,1136.28L860,1136.48L860,1135.95ZM776,1135.52L776,1136.05L783.514,1136.26L783.514,1135.73L776,1135.52ZM860,1134.9L852.486,1134.69L852.486,1135.22L860,1135.43L860,1134.9ZM776,1134.47L776,1135L783.514,1135.2L783.514,1134.67L776,1134.47ZM860,1133.84L852.486,1133.63L852.486,1134.16L860,1134.37L860,1133.84ZM776,1133.41L776,1133.94L783.514,1134.14L783.514,1133.62L776,1133.41ZM860,1132.78L852.486,1132.58L852.486,1133.11L860,1133.31L860,1132.78ZM776,1132.35L776,1132.88L783.514,1133.09L783.514,1132.56L776,1132.35ZM860,1131.73L852.486,1131.52L852.486,1132.05L860,1132.26L860,1131.73ZM776,1131.3L776,1131.83L783.514,1132.03L783.514,1131.5L776,1131.3ZM860,1130.67L852.486,1130.46L852.486,1130.99L860,1131.2L860,1130.67ZM776,1130.24L776,1130.77L783.514,1130.97L783.514,1130.44L776,1130.24ZM860,1129.61L852.486,1129.41L852.486,1129.93L860,1130.14L860,1129.61ZM776,1129.18L776,1129.71L783.514,1129.92L783.514,1129.39L776,1129.18ZM860,1128.56L852.486,1128.35L852.486,1128.88L860,1129.08L860,1128.56ZM776,1128.12L776,1128.65L783.514,1128.86L783.514,1128.33L776,1128.12ZM860,1127.5L852.486,1127.29L852.486,1127.82L860,1128.03L860,1127.5ZM776,1127.07L776,1127.6L783.514,1127.8L783.514,1127.27L776,1127.07ZM860,1126.44L852.486,1126.24L852.486,1126.76L860,1126.97L860,1126.44ZM776,1126.01L776,1126.54L783.514,1126.75L783.514,1126.22L776,1126.01ZM860,1125.38L852.486,1125.18L852.486,1125.71L860,1125.91L860,1125.38ZM776,1124.95L776,1125.48L783.514,1125.69L783.514,1125.16L776,1124.95ZM860,1124.33L852.486,1124.12L852.486,1124.65L860,1124.86L860,1124.33ZM776,1123.9L776,1124.42L783.514,1124.63L783.514,1124.1L776,1123.9ZM860,1123.27L852.486,1123.06L852.486,1123.59L860,1123.8L860,1123.27ZM776,1122.84L776,1123.37L783.514,1123.57L783.514,1123.05L776,1122.84ZM860,1122.21L852.486,1122.01L852.486,1122.54L860,1122.74L860,1122.21ZM776,1121.78L776,1122.31L783.514,1122.52L783.514,1121.99L776,1121.78ZM860,1121.16L852.486,1120.95L852.486,1121.48L860,1121.68L860,1121.16ZM776,1120.73L776,1121.25L783.514,1121.46L783.514,1120.93L776,1120.73ZM860,1120.1L852.486,1119.89L852.486,1120.42L860,1120.63L860,1120.1ZM776,1119.67L776,1120.2L783.514,1120.4L783.514,1119.88L776,1119.67ZM860,1119.04L852.486,1118.84L852.486,1119.37L860,1119.57L860,1119.04ZM776,1118.61L776,1119.14L783.514,1119.35L783.514,1118.82L776,1118.61ZM860,1117.99L852.486,1117.78L852.486,1118.31L860,1118.51L860,1117.99ZM776,1117.55L776,1118.08L783.514,1118.29L783.514,1117.76L776,1117.55ZM860,1116.93L852.486,1116.72L852.486,1117.25L860,1117.46L860,1116.93ZM776,1116.5L776,1117.03L783.514,1117.23L783.514,1116.7L776,1116.5ZM860,1115.87L852.486,1115.66L852.486,1116.19L860,1116.4L860,1115.87ZM776,1115.44L776,1115.97L783.514,1116.17L783.514,1115.65L776,1115.44ZM860,1114.82L852.486,1114.61L852.486,1115.14L860,1115.34L860,1114.82ZM776,1114.38L776,1114.91L783.514,1115.12L783.514,1114.59L776,1114.38ZM860,1113.76L852.486,1113.55L852.486,1114.08L860,1114.29L860,1113.76ZM776,1113.33L776,1113.86L783.514,1114.06L783.514,1113.53L776,1113.33ZM860,1112.7L852.486,1112.5L852.486,1113.02L860,1113.23L860,1112.7ZM776,1112.27L776,1112.8L783.514,1113L783.514,1112.48L776,1112.27ZM860,1111.64L852.486,1111.44L852.486,1111.97L860,1112.17L860,1111.64ZM776,1111.21L776,1111.74L783.514,1111.95L783.514,1111.42L776,1111.21ZM860,1110.59L852.486,1110.38L852.486,1110.91L860,1111.12L860,1110.59ZM776,1110.15L776,1110.68L783.514,1110.89L783.514,1110.36L776,1110.15ZM860,1109.53L852.486,1109.32L852.486,1109.85L860,1110.06L860,1109.53ZM776,1109.1L776,1109.63L783.514,1109.83L783.514,1109.3L776,1109.1ZM860,1108.47L852.486,1108.27L852.486,1108.8L860,1109L860,1108.47ZM776,1108.04L776,1108.57L783.514,1108.78L783.514,1108.25L776,1108.04ZM860,1107.42L852.486,1107.21L852.486,1107.74L860,1107.94L860,1107.42ZM776,1106.98L776,1107.51L783.514,1107.72L783.514,1107.19L776,1106.98ZM860,1106.36L852.486,1106.15L852.486,1106.68L860,1106.89L860,1106.36ZM776,1105.93L776,1106.45L783.514,1106.66L783.514,1106.13L776,1105.93ZM860,1105.3L852.486,1105.1L852.486,1105.62L860,1105.83L860,1105.3ZM776,1104.87L776,1105.4L783.514,1105.6L783.514,1105.08L776,1104.87ZM860,1104.25L852.486,1104.04L852.486,1104.57L860,1104.77L860,1104.25ZM776,1103.81L776,1104.34L783.514,1104.55L783.514,1104.02L776,1103.81ZM860,1103.19L852.486,1102.98L852.486,1103.51L860,1103.72L860,1103.19ZM776,1102.76L776,1103.28L783.514,1103.49L783.514,1102.96L776,1102.76ZM860,1102.13L852.486,1101.92L852.486,1102.45L860,1102.66L860,1102.13ZM776,1101.7L776,1102.23L783.514,1102.43L783.514,1101.9L776,1101.7ZM860,1101.07L852.486,1100.87L852.486,1101.4L860,1101.6L860,1101.07ZM776,1100.64L776,1101.17L783.514,1101.38L783.514,1100.85L776,1100.64ZM860,1100.02L852.486,1099.81L852.486,1100.34L860,1100.55L860,1100.02ZM776,1099.59L776,1100.11L783.514,1100.32L783.514,1099.79L776,1099.59ZM860,1098.96L852.486,1098.75L852.486,1099.28L860,1099.49L860,1098.96ZM776,1098.53L776,1099.06L783.514,1099.26L783.514,1098.73L776,1098.53ZM860,1097.9L852.486,1097.7L852.486,1098.23L860,1098.43L860,1097.9ZM776,1097.47L776,1098L783.514,1098.2L783.514,1097.68L776,1097.47ZM860,1096.85L852.486,1096.64L852.486,1097.17L860,1097.37L860,1096.85ZM776,1096.41L776,1096.94L783.514,1097.15L783.514,1096.62L776,1096.41ZM860,1095.79L852.486,1095.58L852.486,1096.11L860,1096.32L860,1095.79ZM776,1095.36L776,1095.88L783.514,1096.09L783.514,1095.56L776,1095.36ZM860,1094.73L852.486,1094.53L852.486,1095.05L860,1095.26L860,1094.73ZM776,1094.3L776,1094.83L783.514,1095.03L783.514,1094.51L776,1094.3ZM860,1093.67L852.486,1093.47L852.486,1094L860,1094.2L860,1093.67ZM776,1093.24L776,1093.77L783.514,1093.98L783.514,1093.45L776,1093.24ZM860,1092.62L852.486,1092.41L852.486,1092.94L860,1093.15L860,1092.62ZM776,1092.19L776,1092.71L783.514,1092.92L783.514,1092.39L776,1092.19ZM860,1091.56L852.486,1091.35L852.486,1091.88L860,1092.09L860,1091.56ZM776,1091.13L776,1091.66L783.514,1091.86L783.514,1091.34L776,1091.13ZM860,1090.5L852.486,1090.3L852.486,1090.83L860,1091.03L860,1090.5ZM776,1090.07L776,1090.6L783.514,1090.81L783.514,1090.28L776,1090.07ZM860,1089.45L852.486,1089.24L852.486,1089.77L860,1089.97L860,1089.45ZM776,1089.02L776,1089.54L783.514,1089.75L783.514,1089.22L776,1089.02ZM860,1088.39L852.486,1088.18L852.486,1088.71L860,1088.92L860,1088.39ZM776,1087.96L776,1088.49L783.514,1088.69L783.514,1088.16L776,1087.96ZM860,1087.33L852.486,1087.12L852.486,1087.65L860,1087.86L860,1087.33ZM776,1086.9L776,1087.43L783.514,1087.63L783.514,1087.11L776,1086.9ZM860,1086.27L852.486,1086.07L852.486,1086.6L860,1086.8L860,1086.27ZM776,1085.84L776,1086.37L783.514,1086.58L783.514,1086.05L776,1085.84ZM860,1085.22L852.486,1085.01L852.486,1085.54L860,1085.75L860,1085.22ZM776,1084.79L776,1085.32L783.514,1085.52L783.514,1084.99L776,1084.79ZM860,1084.16L852.486,1083.95L852.486,1084.48L860,1084.69L860,1084.16ZM776,1083.73L776,1084.26L783.514,1084.46L783.514,1083.94L776,1083.73ZM860,1083.1L852.486,1082.9L852.486,1083.42L860,1083.63L860,1083.1ZM776,1082.67L776,1083.2L783.514,1083.41L783.514,1082.88L776,1082.67ZM860,1082.05L852.486,1081.84L852.486,1082.37L860,1082.57L860,1082.05ZM776,1081.62L776,1082.14L783.514,1082.35L783.514,1081.82L776,1081.62ZM860,1080.99L852.486,1080.78L852.486,1081.31L860,1081.52L860,1080.99ZM776,1080.56L776,1081.09L783.514,1081.29L783.514,1080.77L776,1080.56ZM860,1079.93L852.486,1079.72L852.486,1080.25L860,1080.46L860,1079.93ZM776,1079.5L776,1080.03L783.514,1080.24L783.514,1079.71L776,1079.5ZM860,1078.87L852.486,1078.67L852.486,1079.2L860,1079.4L860,1078.87ZM776,1078.44L776,1078.97L783.514,1079.18L783.514,1078.65L776,1078.44ZM860,1077.82L852.486,1077.61L852.486,1078.14L860,1078.35L860,1077.82ZM776,1077.39L776,1077.92L783.514,1078.12L783.514,1077.59L776,1077.39ZM860,1076.76L852.486,1076.55L852.486,1077.08L860,1077.29L860,1076.76ZM776,1076.33L776,1076.86L783.514,1077.07L783.514,1076.54L776,1076.33ZM860,1075.7L852.486,1075.5L852.486,1076.03L860,1076.23L860,1075.7ZM776,1075.27L776,1075.8L783.514,1076.01L783.514,1075.48L776,1075.27ZM860,1074.65L852.486,1074.44L852.486,1074.97L860,1075.17L860,1074.65ZM776,1074.22L776,1074.74L783.514,1074.95L783.514,1074.42L776,1074.22ZM860,1073.59L852.486,1073.38L852.486,1073.91L860,1074.12L860,1073.59ZM776,1073.16L776,1073.69L783.514,1073.89L783.514,1073.37L776,1073.16ZM860,1072.53L852.486,1072.33L852.486,1072.85L860,1073.06L860,1072.53ZM776,1072.1L776,1072.63L783.514,1072.84L783.514,1072.31L776,1072.1ZM860,1071.47L852.486,1071.27L852.486,1071.8L860,1072L860,1071.47ZM776,1071.04L776,1071.57L783.514,1071.78L783.514,1071.25L776,1071.04ZM860,1070.42L852.486,1070.21L852.486,1070.74L860,1070.95L860,1070.42ZM776,1069.99L776,1070.52L783.514,1070.72L783.514,1070.19L776,1069.99ZM860,1069.36L852.486,1069.15L852.486,1069.68L860,1069.89L860,1069.36ZM776,1068.93L776,1069.46L783.514,1069.66L783.514,1069.14L776,1068.93ZM860,1068.3L852.486,1068.1L852.486,1068.63L860,1068.83L860,1068.3ZM776,1067.87L776,1068.4L783.514,1068.61L783.514,1068.08L776,1067.87ZM860,1067.25L852.486,1067.04L852.486,1067.57L860,1067.78L860,1067.25ZM776,1066.82L776,1067.35L783.514,1067.55L783.514,1067.02L776,1066.82ZM860,1066.19L852.486,1065.98L852.486,1066.51L860,1066.72L860,1066.19ZM776,1065.76L776,1066.29L783.514,1066.49L783.514,1065.97L776,1065.76ZM860,1065.13L852.486,1064.93L852.486,1065.45L860,1065.66L860,1065.13ZM776,1064.7L776,1065.23L783.514,1065.44L783.514,1064.91L776,1064.7ZM860,1064.08L852.486,1063.87L852.486,1064.4L860,1064.6L860,1064.08ZM776,1063.65L776,1064.17L783.514,1064.38L783.514,1063.85L776,1063.65ZM860,1063.02L852.486,1062.81L852.486,1063.34L860,1063.55L860,1063.02ZM776,1062.59L776,1063.12L783.514,1063.32L783.514,1062.8L776,1062.59ZM860,1061.96L852.486,1061.76L852.486,1062.28L860,1062.49L860,1061.96ZM776,1061.53L776,1062.06L783.514,1062.27L783.514,1061.74L776,1061.53ZM860,1060.9L852.486,1060.7L852.486,1061.23L860,1061.43L860,1060.9ZM776,1060.47L776,1061L783.514,1061.21L783.514,1060.68L776,1060.47ZM860,1059.85L852.486,1059.64L852.486,1060.17L860,1060.38L860,1059.85ZM776,1059.42L776,1059.95L783.514,1060.15L783.514,1059.62L776,1059.42ZM860,1058.79L852.486,1058.58L852.486,1059.11L860,1059.32L860,1058.79ZM776,1058.36L776,1058.89L783.514,1059.1L783.514,1058.57L776,1058.36ZM860,1057.73L852.486,1057.53L852.486,1058.06L860,1058.26L860,1057.73ZM776,1057.3L776,1057.83L783.514,1058.04L783.514,1057.51L776,1057.3ZM860,1056.68L852.486,1056.47L852.486,1057L860,1057.2L860,1056.68ZM776,1056.25L776,1056.78L783.514,1056.98L783.514,1056.45L776,1056.25ZM860,1055.62L852.486,1055.41L852.486,1055.94L860,1056.15L860,1055.62ZM776,1055.19L776,1055.72L783.514,1055.92L783.514,1055.4L776,1055.19ZM860,1054.56L852.486,1054.36L852.486,1054.88L860,1055.09L860,1054.56ZM776,1054.13L776,1054.66L783.514,1054.87L783.514,1054.34L776,1054.13ZM860,1053.51L852.486,1053.3L852.486,1053.83L860,1054.03L860,1053.51ZM776,1053.08L776,1053.6L783.514,1053.81L783.514,1053.28L776,1053.08ZM860,1052.45L852.486,1052.24L852.486,1052.77L860,1052.98L860,1052.45ZM776,1052.02L776,1052.55L783.514,1052.75L783.514,1052.22L776,1052.02ZM860,1051.39L852.486,1051.19L852.486,1051.71L860,1051.92L860,1051.39ZM776,1050.96L776,1051.49L783.514,1051.7L783.514,1051.17L776,1050.96ZM860,1050.34L852.486,1050.13L852.486,1050.66L860,1050.86L860,1050.34ZM776,1049.9L776,1050.43L783.514,1050.64L783.514,1050.11L776,1049.9ZM860,1049.28L852.486,1049.07L852.486,1049.6L860,1049.81L860,1049.28ZM776,1048.85L776,1049.38L783.514,1049.58L783.514,1049.05L776,1048.85ZM860,1048.22L852.486,1048.02L852.486,1048.54L860,1048.75L860,1048.22ZM776,1047.79L776,1048.32L783.514,1048.52L783.514,1048L776,1047.79ZM860,1047.16L852.486,1046.96L852.486,1047.49L860,1047.69L860,1047.16ZM776,1046.73L776,1047.26L783.514,1047.47L783.514,1046.94L776,1046.73ZM860,1046.11L852.486,1045.9L852.486,1046.43L860,1046.63L860,1046.11ZM776,1045.68L776,1046.2L783.514,1046.41L783.514,1045.88L776,1045.68ZM860,1045.05L852.486,1044.84L852.486,1045.37L860,1045.58L860,1045.05ZM776,1044.62L776,1045.15L783.514,1045.35L783.514,1044.83L776,1044.62ZM860,1043.99L852.486,1043.79L852.486,1044.32L860,1044.52L860,1043.99ZM776,1043.56L776,1044.09L783.514,1044.3L783.514,1043.77L776,1043.56ZM860,1042.94L852.486,1042.73L852.486,1043.26L860,1043.46L860,1042.94ZM776,1042.51L776,1043.03L783.514,1043.24L783.514,1042.71L776,1042.51ZM860,1041.88L852.486,1041.67L852.486,1042.2L860,1042.41L860,1041.88ZM776,1041.45L776,1041.98L783.514,1042.18L783.514,1041.65L776,1041.45ZM860,1040.82L852.486,1040.62L852.486,1041.14L860,1041.35L860,1040.82ZM776,1040.39L776,1040.92L783.514,1041.12L783.514,1040.6L776,1040.39ZM860,1039.76L852.486,1039.56L852.486,1040.09L860,1040.29L860,1039.76ZM776,1039.33L776,1039.86L783.514,1040.07L783.514,1039.54L776,1039.33ZM860,1038.71L852.486,1038.5L852.486,1039.03L860,1039.24L860,1038.71ZM776,1038.28L776,1038.8L783.514,1039.01L783.514,1038.48L776,1038.28ZM860,1037.65L852.486,1037.44L852.486,1037.97L860,1038.18L860,1037.65ZM776,1037.22L776,1037.75L783.514,1037.95L783.514,1037.42L776,1037.22ZM860,1036.59L852.486,1036.39L852.486,1036.91L860,1037.12L860,1036.59ZM776,1036.16L776,1036.69L783.514,1036.9L783.514,1036.37L776,1036.16ZM860,1035.54L852.486,1035.33L852.486,1035.86L860,1036.06L860,1035.54ZM776,1035.11L776,1035.63L783.514,1035.84L783.514,1035.31L776,1035.11ZM860,1034.48L852.486,1034.27L852.486,1034.8L860,1035.01L860,1034.48ZM776,1034.05L776,1034.58L783.514,1034.78L783.514,1034.25L776,1034.05ZM860,1033.42L852.486,1033.22L852.486,1033.74L860,1033.95L860,1033.42ZM776,1032.99L776,1033.52L783.514,1033.73L783.514,1033.2L776,1032.99ZM860,1032.37L852.486,1032.16L852.486,1032.69L860,1032.89L860,1032.37ZM776,1031.93L776,1032.46L783.514,1032.67L783.514,1032.14L776,1031.93ZM860,1031.31L852.486,1031.1L852.486,1031.63L860,1031.84L860,1031.31ZM776,1030.88L776,1031.4L783.514,1031.61L783.514,1031.08L776,1030.88ZM860,1030.25L852.486,1030.05L852.486,1030.57L860,1030.78L860,1030.25ZM776,1029.82L776,1030.35L783.514,1030.55L783.514,1030.03L776,1029.82ZM860,1029.19L852.486,1028.99L852.486,1029.52L860,1029.72L860,1029.19ZM776,1028.76L776,1029.29L783.514,1029.5L783.514,1028.97L776,1028.76ZM860,1028.14L852.486,1027.93L852.486,1028.46L860,1028.67L860,1028.14ZM776,1027.7L776,1028.23L783.514,1028.44L783.514,1027.91L776,1027.7ZM860,1027.08L852.486,1026.87L852.486,1027.4L860,1027.61L860,1027.08ZM776,1026.65L776,1027.18L783.514,1027.38L783.514,1026.85L776,1026.65ZM860,1026.02L852.486,1025.82L852.486,1026.35L860,1026.55L860,1026.02ZM776,1025.59L776,1026.12L783.514,1026.33L783.514,1025.8L776,1025.59ZM860,1024.97L852.486,1024.76L852.486,1025.29L860,1025.5L860,1024.97ZM776,1024.53L776,1025.06L783.514,1025.27L783.514,1024.74L776,1024.53ZM860,1023.91L852.486,1023.7L852.486,1024.23L860,1024.44L860,1023.91ZM776,1023.48L776,1024.01L783.514,1024.21L783.514,1023.68L776,1023.48ZM860,1022.85L852.486,1022.65L852.486,1023.18L860,1023.38L860,1022.85ZM776,1022.42L776,1022.95L783.514,1023.15L783.514,1022.63L776,1022.42ZM860,1021.8L852.486,1021.59L852.486,1022.12L860,1022.32L860,1021.8ZM776,1021.36L776,1021.89L783.514,1022.1L783.514,1021.57L776,1021.36ZM860,1020.74L852.486,1020.53L852.486,1021.06L860,1021.27L860,1020.74ZM776,1020.31L776,1020.84L783.514,1021.04L783.514,1020.51L776,1020.31ZM860,1019.68L852.486,1019.48L852.486,1020L860,1020.21L860,1019.68ZM776,1019.25L776,1019.78L783.514,1019.99L783.514,1019.46L776,1019.25ZM860,1018.62L852.486,1018.42L852.486,1018.95L860,1019.15L860,1018.62ZM776,1018.19L776,1018.72L783.514,1018.93L783.514,1018.4L776,1018.19ZM860,1017.57L852.486,1017.36L852.486,1017.89L860,1018.1L860,1017.57ZM776,1017.14L776,1017.66L783.514,1017.87L783.514,1017.34L776,1017.14ZM860,1016.51L852.486,1016.31L852.486,1016.83L860,1017.04L860,1016.51ZM776,1016.08L776,1016.61L783.514,1016.81L783.514,1016.28L776,1016.08ZM860,1015.45L852.486,1015.25L852.486,1015.78L860,1015.98L860,1015.45ZM776,1015.02L776,1015.55L783.514,1015.76L783.514,1015.23L776,1015.02ZM860,1014.4L852.486,1014.19L852.486,1014.72L860,1014.93L860,1014.4ZM776,1013.97L776,1014.49L783.514,1014.7L783.514,1014.17L776,1013.97ZM860,1013.34L852.486,1013.13L852.486,1013.66L860,1013.87L860,1013.34ZM776,1012.91L776,1013.44L783.514,1013.64L783.514,1013.11L776,1012.91ZM860,1012.28L852.486,1012.08L852.486,1012.61L860,1012.81L860,1012.28ZM776,1011.85L776,1012.38L783.514,1012.59L783.514,1012.06L776,1011.85ZM860,1011.23L852.486,1011.02L852.486,1011.55L860,1011.75L860,1011.23ZM776,1010.79L776,1011.32L783.514,1011.53L783.514,1011L776,1010.79ZM860,1010.17L852.486,1009.96L852.486,1010.49L860,1010.7L860,1010.17ZM776,1009.74L776,1010.26L783.514,1010.47L783.514,1009.94L776,1009.74ZM860,1009.11L852.486,1008.91L852.486,1009.43L860,1009.64L860,1009.11ZM776,1008.68L776,1009.21L783.514,1009.41L783.514,1008.88L776,1008.68ZM860,1008.06L852.486,1007.85L852.486,1008.38L860,1008.58L860,1008.06ZM776,1007.62L776,1008.15L783.514,1008.36L783.514,1007.83L776,1007.62ZM860,1007L852.486,1006.79L852.486,1007.32L860,1007.53L860,1007ZM776,1006.57L776,1007.09L783.514,1007.3L783.514,1006.77L776,1006.57ZM860,1005.94L852.486,1005.74L852.486,1006.26L860,1006.47L860,1005.94ZM776,1005.51L776,1006.04L783.514,1006.24L783.514,1005.72L776,1005.51ZM860,1004.88L852.486,1004.68L852.486,1005.21L860,1005.41L860,1004.88ZM776,1004.45L776,1004.98L783.514,1005.19L783.514,1004.66L776,1004.45ZM860,1003.83L852.486,1003.62L852.486,1004.15L860,1004.36L860,1003.83ZM776,1003.39L776,1003.92L783.514,1004.13L783.514,1003.6L776,1003.39ZM860,1002.77L852.486,1002.56L852.486,1003.09L860,1003.3L860,1002.77ZM776,1002.34L776,1002.87L783.514,1003.07L783.514,1002.54L776,1002.34ZM860,1001.71L852.486,1001.51L852.486,1002.03L860,1002.24L860,1001.71ZM776,1001.28L776,1001.81L783.514,1002.01L783.514,1001.49L776,1001.28ZM860,1000.66L852.486,1000.45L852.486,1000.98L860,1001.19L860,1000.66ZM776,1000.22L776,1000.75L783.514,1000.96L783.514,1000.43L776,1000.22ZM860,999.599L852.486,999.393L852.486,999.921L860,1000.13L860,999.599ZM776,999.167L776,999.695L783.514,999.901L783.514,999.373L776,999.167ZM860,998.542L852.486,998.336L852.486,998.864L860,999.07L860,998.542ZM776,998.11L776,998.638L783.514,998.845L783.514,998.316L776,998.11ZM860,997.485L852.486,997.279L852.486,997.807L860,998.013L860,997.485ZM776,997.053L776,997.581L783.514,997.788L783.514,997.259L776,997.053ZM860,996.428L852.486,996.222L852.486,996.75L860,996.956L860,996.428ZM776,995.996L776,996.524L783.514,996.731L783.514,996.202L776,995.996ZM860,995.371L852.486,995.165L852.486,995.693L860,995.899L860,995.371ZM776,994.939L776,995.467L783.514,995.674L783.514,995.145L776,994.939ZM860,994.314L852.486,994.107L852.486,994.636L860,994.842L860,994.314ZM776,993.882L776,994.411L783.514,994.617L783.514,994.088L776,993.882ZM860,993.256L852.486,993.05L852.486,993.579L860,993.785L860,993.256ZM776,992.825L776,993.354L783.514,993.56L783.514,993.032L776,992.825ZM860,992.199L852.486,991.993L852.486,992.521L860,992.727L860,992.199ZM776,991.768L776,992.297L783.514,992.503L783.514,991.974L776,991.768ZM860,991.141L852.486,990.935L852.486,991.464L860,991.67L860,991.141ZM776,990.711L776,991.24L783.514,991.446L783.514,990.917L776,990.711ZM860,990.084L852.486,989.878L852.486,990.407L860,990.613L860,990.084ZM776,989.654L776,990.183L783.514,990.389L783.514,989.86L776,989.654ZM860,989.027L852.486,988.821L852.486,989.349L860,989.555L860,989.027ZM776,988.597L776,989.125L783.514,989.332L783.514,988.803L776,988.597ZM860,987.97L852.486,987.764L852.486,988.292L860,988.499L860,987.97ZM776,987.54L776,988.069L783.514,988.275L783.514,987.746L776,987.54ZM860,986.913L852.486,986.707L852.486,987.235L860,987.442L860,986.913ZM776,986.483L776,987.011L783.514,987.217L783.514,986.689L776,986.483ZM860,985.856L852.486,985.65L852.486,986.178L860,986.385L860,985.856ZM776,985.426L776,985.954L783.514,986.16L783.514,985.632L776,985.426ZM860,984.799L852.486,984.593L852.486,985.122L860,985.328L860,984.799ZM776,984.368L776,984.897L783.514,985.103L783.514,984.575L776,984.368ZM860,983.742L852.486,983.536L852.486,984.064L860,984.27L860,983.742ZM776,983.312L776,983.84L783.514,984.046L783.514,983.518L776,983.312ZM860,982.685L852.486,982.479L852.486,983.008L860,983.214L860,982.685ZM776,982.255L776,982.783L783.514,982.989L783.514,982.461L776,982.255ZM860,981.628L852.486,981.422L852.486,981.951L860,982.157L860,981.628ZM776,981.198L776,981.726L783.514,981.932L783.514,981.404L776,981.198ZM860,980.571L852.486,980.365L852.486,980.893L860,981.1L860,980.571ZM776,980.141L776,980.669L783.514,980.875L783.514,980.347L776,980.141ZM860,979.514L852.486,979.308L852.486,979.836L860,980.043L860,979.514ZM776,979.084L776,979.612L783.514,979.818L783.514,979.29L776,979.084ZM860,978.457L852.486,978.251L852.486,978.78L860,978.986L860,978.457ZM776,978.027L776,978.555L783.514,978.761L783.514,978.233L776,978.027ZM860,977.4L852.486,977.194L852.486,977.723L860,977.929L860,977.4ZM776,976.969L776,977.498L783.514,977.704L783.514,977.175L776,976.969ZM860,976.343L852.486,976.137L852.486,976.665L860,976.872L860,976.343ZM776,975.912L776,976.441L783.514,976.647L783.514,976.118L776,975.912ZM860,975.286L852.486,975.08L852.486,975.609L860,975.815L860,975.286ZM776,974.855L776,975.384L783.514,975.59L783.514,975.062L776,974.855ZM860,974.229L852.486,974.023L852.486,974.552L860,974.758L860,974.229ZM776,973.798L776,974.327L783.514,974.533L783.514,974.005L776,973.798ZM860,973.172L852.486,972.966L852.486,973.495L860,973.701L860,973.172ZM776,972.741L776,973.27L783.514,973.476L783.514,972.948L776,972.741ZM860,972.115L852.486,971.909L852.486,972.438L860,972.644L860,972.115ZM776,971.684L776,972.213L783.514,972.419L783.514,971.89L776,971.684ZM860,971.058L852.486,970.852L852.486,971.381L860,971.587L860,971.058ZM776,970.627L776,971.156L783.514,971.362L783.514,970.833L776,970.627ZM860,970.001L852.486,969.795L852.486,970.324L860,970.53L860,970.001ZM776,969.57L776,970.098L783.514,970.305L783.514,969.776L776,969.57ZM860,968.944L852.486,968.738L852.486,969.267L860,969.473L860,968.944ZM776,968.513L776,969.042L783.514,969.248L783.514,968.719L776,968.513ZM860,967.887L852.486,967.681L852.486,968.21L860,968.416L860,967.887ZM776,967.456L776,967.985L783.514,968.191L783.514,967.662L776,967.456ZM860,966.83L852.486,966.624L852.486,967.152L860,967.358L860,966.83ZM776,966.399L776,966.927L783.514,967.133L783.514,966.605L776,966.399ZM860,965.773L852.486,965.567L852.486,966.095L860,966.301L860,965.773ZM776,965.342L776,965.87L783.514,966.077L783.514,965.548L776,965.342ZM860,964.716L852.486,964.51L852.486,965.038L860,965.244L860,964.716ZM776,964.285L776,964.814L783.514,965.02L783.514,964.491L776,964.285ZM860,963.659L852.486,963.453L852.486,963.981L860,964.187L860,963.659ZM776,963.228L776,963.757L783.514,963.963L783.514,963.434L776,963.228ZM860,962.602L852.486,962.396L852.486,962.924L860,963.131L860,962.602ZM776,962.171L776,962.7L783.514,962.906L783.514,962.377L776,962.171ZM860,961.545L852.486,961.339L852.486,961.867L860,962.074L860,961.545ZM776,961.114L776,961.642L783.514,961.849L783.514,961.32L776,961.114ZM860,960.488L852.486,960.282L852.486,960.81L860,961.017L860,960.488ZM776,960.057L776,960.585L783.514,960.792L783.514,960.263L776,960.057ZM860,959.431L852.486,959.225L852.486,959.754L860,959.96L860,959.431ZM776,959L776,959.529L783.514,959.735L783.514,959.206L776,959ZM860,958.374L852.486,958.168L852.486,958.697L860,958.903L860,958.374ZM776,957.943L776,958.472L783.514,958.678L783.514,958.15L776,957.943ZM860,957.317L852.486,957.111L852.486,957.64L860,957.846L860,957.317ZM776,956.886L776,957.415L783.514,957.621L783.514,957.092L776,956.886ZM860,956.26L852.486,956.054L852.486,956.582L860,956.789L860,956.26ZM776,955.829L776,956.357L783.514,956.563L783.514,956.035L776,955.829ZM860,955.203L852.486,954.997L852.486,955.525L860,955.731L860,955.203ZM776,954.772L776,955.3L783.514,955.507L783.514,954.978L776,954.772ZM860,954.146L852.486,953.94L852.486,954.468L860,954.675L860,954.146ZM776,953.715L776,954.243L783.514,954.449L783.514,953.921L776,953.715ZM860,953.089L852.486,952.883L852.486,953.411L860,953.618L860,953.089ZM776,952.658L776,953.186L783.514,953.392L783.514,952.864L776,952.658ZM860,952.032L852.486,951.826L852.486,952.354L860,952.56L860,952.032ZM776,951.601L776,952.129L783.514,952.336L783.514,951.807L776,951.601ZM860,950.974L852.486,950.768L852.486,951.297L860,951.503L860,950.974ZM776,950.544L776,951.072L783.514,951.278L783.514,950.75L776,950.544ZM860,949.917L852.486,949.711L852.486,950.24L860,950.446L860,949.917ZM776,949.487L776,950.015L783.514,950.221L783.514,949.693L776,949.487ZM860,948.86L852.486,948.654L852.486,949.183L860,949.389L860,948.86ZM776,948.43L776,948.958L783.514,949.164L783.514,948.636L776,948.43ZM860,947.803L852.486,947.597L852.486,948.126L860,948.332L860,947.803ZM776,947.373L776,947.901L783.514,948.107L783.514,947.579L776,947.373ZM860,946.746L852.486,946.54L852.486,947.069L860,947.275L860,946.746ZM776,946.316L776,946.844L783.514,947.05L783.514,946.522L776,946.316ZM860,945.689L852.486,945.483L852.486,946.012L860,946.218L860,945.689ZM776,945.259L776,945.787L783.514,945.993L783.514,945.465L776,945.259ZM860,944.632L852.486,944.426L852.486,944.955L860,945.161L860,944.632ZM776,944.201L776,944.73L783.514,944.936L783.514,944.408L776,944.201ZM860,943.575L852.486,943.369L852.486,943.897L860,944.103L860,943.575ZM776,943.144L776,943.673L783.514,943.879L783.514,943.35L776,943.144ZM860,942.518L852.486,942.311L852.486,942.84L860,943.046L860,942.518ZM776,942.087L776,942.615L783.514,942.822L783.514,942.293L776,942.087ZM860,941.46L852.486,941.254L852.486,941.783L860,941.989L860,941.46ZM776,941.03L776,941.558L783.514,941.764L783.514,941.236L776,941.03ZM860,940.404L852.486,940.197L852.486,940.726L860,940.932L860,940.404ZM776,939.973L776,940.501L783.514,940.707L783.514,940.179L776,939.973ZM860,939.346L852.486,939.14L852.486,939.669L860,939.875L860,939.346ZM776,938.916L776,939.444L783.514,939.651L783.514,939.122L776,938.916ZM860,938.29L852.486,938.084L852.486,938.612L860,938.818L860,938.29ZM776,937.859L776,938.387L783.514,938.593L783.514,938.065L776,937.859ZM860,937.233L852.486,937.027L852.486,937.555L860,937.761L860,937.233ZM776,936.802L776,937.33L783.514,937.536L783.514,937.008L776,936.802ZM860,936.176L852.486,935.97L852.486,936.498L860,936.704L860,936.176ZM776,935.745L776,936.273L783.514,936.479L783.514,935.951L776,935.745ZM860,935.119L852.486,934.913L852.486,935.441L860,935.647L860,935.119ZM776,934.688L776,935.216L783.514,935.422L783.514,934.894L776,934.688ZM860,934.062L852.486,933.856L852.486,934.384L860,934.59L860,934.062ZM776,933.631L776,934.159L783.514,934.365L783.514,933.837L776,933.631ZM860,933.005L852.486,932.799L852.486,933.327L860,933.533L860,933.005ZM776,932.574L776,933.102L783.514,933.308L783.514,932.78L776,932.574ZM860,931.947L852.486,931.741L852.486,932.27L860,932.476L860,931.947ZM776,931.517L776,932.045L783.514,932.251L783.514,931.723L776,931.517ZM860,930.89L852.486,930.684L852.486,931.213L860,931.419L860,930.89ZM776,930.46L776,930.988L783.514,931.194L783.514,930.666L776,930.46ZM860,929.833L852.486,929.627L852.486,930.156L860,930.362L860,929.833ZM776,929.402L776,929.931L783.514,930.137L783.514,929.608L776,929.402ZM860,928.777L852.486,928.571L852.486,929.099L860,929.305L860,928.777ZM776,928.345L776,928.873L783.514,929.08L783.514,928.551L776,928.345ZM860,927.72L852.486,927.513L852.486,928.042L860,928.248L860,927.72ZM776,927.288L776,927.816L783.514,928.022L783.514,927.494L776,927.288ZM860,926.663L852.486,926.456L852.486,926.985L860,927.191L860,926.663ZM776,926.23L776,926.759L783.514,926.965L783.514,926.436L776,926.23ZM860,925.606L852.486,925.4L852.486,925.928L860,926.134L860,925.606ZM776,925.173L776,925.701L783.514,925.907L783.514,925.379L776,925.173ZM860,924.549L852.486,924.343L852.486,924.871L860,925.077L860,924.549ZM776,924.115L776,924.644L783.514,924.85L783.514,924.321L776,924.115ZM860,923.492L852.486,923.286L852.486,923.814L860,924.02L860,923.492ZM776,923.058L776,923.587L783.514,923.793L783.514,923.264L776,923.058ZM860,922.435L852.486,922.229L852.486,922.757L860,922.963L860,922.435ZM776,922.002L776,922.53L783.514,922.736L783.514,922.208L776,922.002ZM860,921.378L852.486,921.172L852.486,921.7L860,921.906L860,921.378ZM776,920.944L776,921.473L783.514,921.679L783.514,921.15L776,920.944ZM860,920.321L852.486,920.115L852.486,920.643L860,920.849L860,920.321ZM776,919.888L776,920.416L783.514,920.622L783.514,920.094L776,919.888ZM860,919.264L852.486,919.058L852.486,919.586L860,919.792L860,919.264ZM776,918.83L776,919.359L783.514,919.565L783.514,919.036L776,918.83ZM860,918.207L852.486,918.001L852.486,918.529L860,918.735L860,918.207ZM776,917.773L776,918.302L783.514,918.508L783.514,917.979L776,917.773ZM860,917.15L852.486,916.944L852.486,917.473L860,917.679L860,917.15ZM776,916.716L776,917.245L783.514,917.451L783.514,916.923L776,916.716ZM860,916.093L852.486,915.887L852.486,916.416L860,916.622L860,916.093ZM776,915.659L776,916.188L783.514,916.394L783.514,915.866L776,915.659ZM860,915.036L852.486,914.83L852.486,915.358L860,915.565L860,915.036ZM776,914.602L776,915.131L783.514,915.337L783.514,914.808L776,914.602ZM860,913.979L852.486,913.773L852.486,914.301L860,914.507L860,913.979ZM776,913.545L776,914.074L783.514,914.28L783.514,913.751L776,913.545ZM860,912.922L852.486,912.716L852.486,913.244L860,913.45L860,912.922ZM776,912.488L776,913.017L783.514,913.223L783.514,912.694L776,912.488ZM860,911.865L852.486,911.659L852.486,912.187L860,912.393L860,911.865ZM776,911.431L776,911.96L783.514,912.166L783.514,911.637L776,911.431ZM860,910.808L852.486,910.602L852.486,911.13L860,911.336L860,910.808ZM776,910.374L776,910.903L783.514,911.109L783.514,910.58L776,910.374ZM860,909.751L852.486,909.544L852.486,910.073L860,910.279L860,909.751ZM776,909.317L776,909.845L783.514,910.051L783.514,909.523L776,909.317ZM860,908.693L852.486,908.487L852.486,909.016L860,909.222L860,908.693ZM776,908.26L776,908.789L783.514,908.995L783.514,908.466L776,908.26ZM860,907.636L852.486,907.43L852.486,907.959L860,908.165L860,907.636ZM776,907.203L776,907.731L783.514,907.938L783.514,907.409L776,907.203ZM860,906.579L852.486,906.373L852.486,906.902L860,907.108L860,906.579ZM776,906.146L776,906.674L783.514,906.881L783.514,906.352L776,906.146ZM860,905.522L852.486,905.316L852.486,905.845L860,906.051L860,905.522ZM776,905.089L776,905.618L783.514,905.824L783.514,905.296L776,905.089ZM860,904.465L852.486,904.259L852.486,904.788L860,904.994L860,904.465ZM776,904.033L776,904.561L783.514,904.767L783.514,904.239L776,904.033ZM860,903.408L852.486,903.202L852.486,903.731L860,903.937L860,903.408ZM776,902.976L776,903.505L783.514,903.711L783.514,903.182L776,902.976ZM860,902.351L852.486,902.145L852.486,902.674L860,902.88L860,902.351ZM776,901.918L776,902.447L783.514,902.653L783.514,902.125L776,901.918ZM860,901.294L852.486,901.088L852.486,901.617L860,901.823L860,901.294ZM776,900.862L776,901.39L783.514,901.596L783.514,901.068L776,900.862ZM860,900.237L852.486,900.031L852.486,900.56L860,900.766L860,900.237ZM776,899.804L776,900.333L783.514,900.539L783.514,900.01L776,899.804ZM860,899.18L852.486,898.974L852.486,899.503L860,899.709L860,899.18ZM776,898.747L776,899.276L783.514,899.482L783.514,898.953L776,898.747ZM860,898.123L852.486,897.917L852.486,898.445L860,898.652L860,898.123ZM776,897.69L776,898.218L783.514,898.425L783.514,897.896L776,897.69ZM860,897.066L852.486,896.86L852.486,897.388L860,897.595L860,897.066ZM776,896.633L776,897.162L783.514,897.368L783.514,896.839L776,896.633ZM860,896.009L852.486,895.803L852.486,896.331L860,896.537L860,896.009ZM776,895.576L776,896.104L783.514,896.31L783.514,895.782L776,895.576ZM860,894.952L852.486,894.746L852.486,895.274L860,895.48L860,894.952ZM776,894.519L776,895.047L783.514,895.254L783.514,894.725L776,894.519ZM860,893.895L852.486,893.689L852.486,894.217L860,894.423L860,893.895ZM776,893.462L776,893.99L783.514,894.196L783.514,893.668L776,893.462ZM860,892.838L852.486,892.632L852.486,893.16L860,893.366L860,892.838ZM776,892.404L776,892.933L783.514,893.139L783.514,892.61L776,892.404ZM860,891.781L852.486,891.575L852.486,892.103L860,892.309L860,891.781ZM776,891.347L776,891.876L783.514,892.082L783.514,891.554L776,891.347ZM860,890.724L852.486,890.518L852.486,891.046L860,891.253L860,890.724ZM776,890.29L776,890.819L783.514,891.025L783.514,890.496L776,890.29ZM860,889.667L852.486,889.461L852.486,889.989L860,890.195L860,889.667ZM776,889.233L776,889.761L783.514,889.968L783.514,889.439L776,889.233ZM860,888.61L852.486,888.404L852.486,888.932L860,889.138L860,888.61ZM776,888.176L776,888.705L783.514,888.911L783.514,888.382L776,888.176ZM860,887.553L852.486,887.347L852.486,887.875L860,888.081L860,887.553ZM776,887.119L776,887.648L783.514,887.854L783.514,887.325L776,887.119ZM860,886.496L852.486,886.29L852.486,886.818L860,887.024L860,886.496ZM776,886.062L776,886.591L783.514,886.797L783.514,886.268L776,886.062ZM860,885.439L852.486,885.233L852.486,885.761L860,885.967L860,885.439ZM776,885.005L776,885.533L783.514,885.74L783.514,885.211L776,885.005ZM860,884.382L852.486,884.176L852.486,884.704L860,884.91L860,884.382ZM776,883.948L776,884.477L783.514,884.683L783.514,884.154L776,883.948ZM860,883.325L852.486,883.119L852.486,883.647L860,883.853L860,883.325ZM776,882.891L776,883.42L783.514,883.626L783.514,883.098L776,882.891ZM860,882.268L852.486,882.062L852.486,882.59L860,882.797L860,882.268ZM776,881.834L776,882.363L783.514,882.569L783.514,882.041L776,881.834ZM860,881.211L852.486,881.005L852.486,881.533L860,881.74L860,881.211ZM776,880.778L776,881.306L783.514,881.512L783.514,880.984L776,880.778ZM860,880.154L852.486,879.948L852.486,880.476L860,880.683L860,880.154ZM776,879.72L776,880.249L783.514,880.455L783.514,879.926L776,879.72ZM860,879.097L852.486,878.891L852.486,879.419L860,879.626L860,879.097ZM776,878.663L776,879.192L783.514,879.398L783.514,878.87L776,878.663ZM860,878.04L852.486,877.834L852.486,878.362L860,878.569L860,878.04ZM776,877.606L776,878.135L783.514,878.341L783.514,877.813L776,877.606ZM860,876.983L852.486,876.777L852.486,877.305L860,877.511L860,876.983ZM776,876.549L776,877.078L783.514,877.284L783.514,876.755L776,876.549ZM860,875.926L852.486,875.72L852.486,876.248L860,876.454L860,875.926ZM776,875.493L776,876.021L783.514,876.227L783.514,875.699L776,875.493ZM860,874.869L852.486,874.663L852.486,875.191L860,875.397L860,874.869ZM776,874.436L776,874.964L783.514,875.17L783.514,874.642L776,874.436ZM860,873.812L852.486,873.606L852.486,874.134L860,874.34L860,873.812ZM776,873.379L776,873.907L783.514,874.113L783.514,873.585L776,873.379ZM860,872.755L852.486,872.549L852.486,873.077L860,873.283L860,872.755ZM776,872.322L776,872.85L783.514,873.056L783.514,872.528L776,872.322ZM860,871.698L852.486,871.492L852.486,872.02L860,872.226L860,871.698ZM776,871.265L776,871.793L783.514,871.999L783.514,871.471L776,871.265ZM860,870.641L852.486,870.435L852.486,870.963L860,871.169L860,870.641ZM776,870.208L776,870.736L783.514,870.942L783.514,870.414L776,870.208ZM860,869.584L852.486,869.378L852.486,869.906L860,870.112L860,869.584ZM776,869.151L776,869.679L783.514,869.885L783.514,869.357L776,869.151ZM860,868.527L852.486,868.321L852.486,868.849L860,869.055L860,868.527ZM776,868.094L776,868.622L783.514,868.828L783.514,868.3L776,868.094ZM860,867.47L852.486,867.264L852.486,867.792L860,867.998L860,867.47ZM776,867.037L776,867.566L783.514,867.772L783.514,867.243L776,867.037ZM860,866.413L852.486,866.207L852.486,866.735L860,866.941L860,866.413ZM776,865.98L776,866.508L783.514,866.714L783.514,866.186L776,865.98ZM860,865.356L852.486,865.15L852.486,865.678L860,865.884L860,865.356ZM776,864.923L776,865.451L783.514,865.658L783.514,865.129L776,864.923ZM860,864.299L852.486,864.093L852.486,864.621L860,864.827L860,864.299ZM776,863.866L776,864.394L783.514,864.601L783.514,864.072L776,863.866ZM860,863.242L852.486,863.036L852.486,863.564L860,863.77L860,863.242ZM776,862.809L776,863.337L783.514,863.543L783.514,863.015L776,862.809ZM860,862.185L852.486,861.979L852.486,862.507L860,862.713L860,862.185ZM776,861.752L776,862.28L783.514,862.486L783.514,861.958L776,861.752ZM860,861.128L852.486,860.922L852.486,861.45L860,861.656L860,861.128ZM776,860.695L776,861.223L783.514,861.429L783.514,860.901L776,860.695ZM860,860.071L852.486,859.865L852.486,860.393L860,860.599L860,860.071ZM776,859.637L776,860.166L783.514,860.372L783.514,859.844L776,859.637ZM860,859.014L852.486,858.808L852.486,859.336L860,859.542L860,859.014ZM776,858.58L776,859.109L783.514,859.315L783.514,858.787L776,858.58ZM860,857.957L852.486,857.751L852.486,858.279L860,858.485L860,857.957ZM776,857.523L776,858.052L783.514,858.258L783.514,857.729L776,857.523ZM860,856.9L852.486,856.694L852.486,857.222L860,857.428L860,856.9ZM776,856.466L776,856.995L783.514,857.201L783.514,856.672L776,856.466ZM860,855.843L852.486,855.637L852.486,856.165L860,856.371L860,855.843ZM776,855.409L776,855.937L783.514,856.144L783.514,855.615L776,855.409ZM860,854.786L852.486,854.58L852.486,855.108L860,855.314L860,854.786ZM776,854.352L776,854.88L783.514,855.087L783.514,854.558L776,854.352ZM860,853.729L852.486,853.523L852.486,854.051L860,854.257L860,853.729ZM776,853.295L776,853.823L783.514,854.03L783.514,853.501L776,853.295ZM860,852.672L852.486,852.465L852.486,852.994L860,853.2L860,852.672ZM776,852.238L776,852.766L783.514,852.972L783.514,852.444L776,852.238ZM860,851.615L852.486,851.408L852.486,851.937L860,852.143L860,851.615ZM776,851.181L776,851.709L783.514,851.915L783.514,851.387L776,851.181ZM860,850.558L852.486,850.351L852.486,850.88L860,851.086L860,850.558ZM776,850.123L776,850.652L783.514,850.858L783.514,850.33L776,850.123ZM860,849.501L852.486,849.294L852.486,849.823L860,850.029L860,849.501ZM776,849.066L776,849.595L783.514,849.801L783.514,849.272L776,849.066ZM860,848.443L852.486,848.237L852.486,848.766L860,848.972L860,848.443ZM776,848.009L776,848.538L783.514,848.744L783.514,848.215L776,848.009ZM860,847.386L852.486,847.18L852.486,847.709L860,847.915L860,847.386ZM776,846.952L776,847.481L783.514,847.687L783.514,847.158L776,846.952ZM860,846.329L852.486,846.123L852.486,846.652L860,846.858L860,846.329ZM776,845.895L776,846.424L783.514,846.63L783.514,846.101L776,845.895ZM860,845.272L852.486,845.066L852.486,845.595L860,845.801L860,845.272ZM776,844.838L776,845.367L783.514,845.573L783.514,845.044L776,844.838ZM860,844.215L852.486,844.009L852.486,844.538L860,844.744L860,844.215ZM776,843.781L776,844.309L783.514,844.516L783.514,843.987L776,843.781ZM860,843.158L852.486,842.952L852.486,843.481L860,843.687L860,843.158ZM776,842.724L776,843.252L783.514,843.458L783.514,842.93L776,842.724ZM860,842.63L860,841.667L853,841.667L854.345,841.946L852.486,841.895L852.486,842.424L860,842.63ZM776,841.667L776,841.667L776,842.007C777.513,842.141 778.73,842.234 778.73,842.234C777.847,842.234 776.921,842.22 776,842.195L776,842.195L783.514,842.401L783.514,841.873L778.73,842.234L776,841.667ZM790,841.667L783,841.667L785.73,842.234L792.73,842.234L790,841.667ZM804,841.667L797,841.667L799.73,842.234L806.73,842.234L804,841.667ZM818,841.667L811,841.667L813.73,842.234L820.73,842.234L818,841.667ZM832,841.667L825,841.667L827.73,842.234L834.73,842.234L832,841.667ZM846,841.667L839,841.667L841.73,842.234L848.73,842.234L846,841.667Z" style="fill:rgb(30,237,116);fill-opacity:0.2;"/>
                </g>
                <g transform="matrix(0.992063,0,-4.7742,24.4831,5455.29,-23620.9)">
                    <path d="M790.645,1173L787.915,1172.43L780.915,1172.43L782.147,1172.69L776,1172.52L776,1173L783.514,1173L783.514,1172.97L783.645,1173L790.645,1173ZM797.645,1173L804.645,1173L801.915,1172.43L794.915,1172.43L797.645,1173ZM818.645,1173L815.915,1172.43L808.915,1172.43L811.645,1173L818.645,1173ZM832.645,1173L829.915,1172.43L822.915,1172.43L825.645,1173L832.645,1173ZM846.645,1173L843.915,1172.43L836.915,1172.43L839.645,1173L846.645,1173ZM853.645,1173L860,1173L860,1172.95L859.73,1172.94L857.27,1172.43L850.915,1172.43L852.486,1172.76L852.486,1172.79L852.744,1172.81L853.645,1173ZM860,1171.89L852.486,1171.69L852.486,1172.22L860,1172.42L860,1171.89ZM776,1171.46L776,1171.99L783.514,1172.2L783.514,1171.67L776,1171.46ZM860,1170.84L852.486,1170.63L852.486,1171.16L860,1171.37L860,1170.84ZM776,1170.41L776,1170.93L783.514,1171.14L783.514,1170.61L776,1170.41ZM860,1169.78L852.486,1169.57L852.486,1170.1L860,1170.31L860,1169.78ZM776,1169.35L776,1169.88L783.514,1170.08L783.514,1169.56L776,1169.35ZM860,1168.72L852.486,1168.52L852.486,1169.05L860,1169.25L860,1168.72ZM776,1168.29L776,1168.82L783.514,1169.03L783.514,1168.5L776,1168.29ZM860,1167.67L852.486,1167.46L852.486,1167.99L860,1168.19L860,1167.67ZM776,1167.24L776,1167.76L783.514,1167.97L783.514,1167.44L776,1167.24ZM860,1166.61L852.486,1166.4L852.486,1166.93L860,1167.14L860,1166.61ZM776,1166.18L776,1166.71L783.514,1166.91L783.514,1166.38L776,1166.18ZM860,1165.55L852.486,1165.35L852.486,1165.88L860,1166.08L860,1165.55ZM776,1165.12L776,1165.65L783.514,1165.86L783.514,1165.33L776,1165.12ZM860,1164.5L852.486,1164.29L852.486,1164.82L860,1165.02L860,1164.5ZM776,1164.06L776,1164.59L783.514,1164.8L783.514,1164.27L776,1164.06ZM860,1163.44L852.486,1163.23L852.486,1163.76L860,1163.97L860,1163.44ZM776,1163.01L776,1163.54L783.514,1163.74L783.514,1163.21L776,1163.01ZM860,1162.38L852.486,1162.18L852.486,1162.7L860,1162.91L860,1162.38ZM776,1161.95L776,1162.48L783.514,1162.68L783.514,1162.16L776,1161.95ZM860,1161.33L852.486,1161.12L852.486,1161.65L860,1161.85L860,1161.33ZM776,1160.89L776,1161.42L783.514,1161.63L783.514,1161.1L776,1160.89ZM860,1160.27L852.486,1160.06L852.486,1160.59L860,1160.8L860,1160.27ZM776,1159.84L776,1160.36L783.514,1160.57L783.514,1160.04L776,1159.84ZM860,1159.21L852.486,1159L852.486,1159.53L860,1159.74L860,1159.21ZM776,1158.78L776,1159.31L783.514,1159.51L783.514,1158.99L776,1158.78ZM860,1158.15L852.486,1157.95L852.486,1158.48L860,1158.68L860,1158.15ZM776,1157.72L776,1158.25L783.514,1158.46L783.514,1157.93L776,1157.72ZM860,1157.1L852.486,1156.89L852.486,1157.42L860,1157.62L860,1157.1ZM776,1156.66L776,1157.19L783.514,1157.4L783.514,1156.87L776,1156.66ZM860,1156.04L852.486,1155.83L852.486,1156.36L860,1156.57L860,1156.04ZM776,1155.61L776,1156.14L783.514,1156.34L783.514,1155.81L776,1155.61ZM860,1154.98L852.486,1154.78L852.486,1155.31L860,1155.51L860,1154.98ZM776,1154.55L776,1155.08L783.514,1155.29L783.514,1154.76L776,1154.55ZM860,1153.93L852.486,1153.72L852.486,1154.25L860,1154.45L860,1153.93ZM776,1153.49L776,1154.02L783.514,1154.23L783.514,1153.7L776,1153.49ZM860,1152.87L852.486,1152.66L852.486,1153.19L860,1153.4L860,1152.87ZM776,1152.44L776,1152.96L783.514,1153.17L783.514,1152.64L776,1152.44ZM860,1151.81L852.486,1151.61L852.486,1152.13L860,1152.34L860,1151.81ZM776,1151.38L776,1151.91L783.514,1152.11L783.514,1151.59L776,1151.38ZM860,1150.76L852.486,1150.55L852.486,1151.08L860,1151.28L860,1150.76ZM776,1150.32L776,1150.85L783.514,1151.06L783.514,1150.53L776,1150.32ZM860,1149.7L852.486,1149.49L852.486,1150.02L860,1150.23L860,1149.7ZM776,1149.27L776,1149.79L783.514,1150L783.514,1149.47L776,1149.27ZM860,1148.64L852.486,1148.43L852.486,1148.96L860,1149.17L860,1148.64ZM776,1148.21L776,1148.74L783.514,1148.94L783.514,1148.41L776,1148.21ZM860,1147.58L852.486,1147.38L852.486,1147.91L860,1148.11L860,1147.58ZM776,1147.15L776,1147.68L783.514,1147.89L783.514,1147.36L776,1147.15ZM860,1146.53L852.486,1146.32L852.486,1146.85L860,1147.06L860,1146.53ZM776,1146.1L776,1146.62L783.514,1146.83L783.514,1146.3L776,1146.1ZM860,1145.47L852.486,1145.26L852.486,1145.79L860,1146L860,1145.47ZM776,1145.04L776,1145.57L783.514,1145.77L783.514,1145.24L776,1145.04ZM860,1144.41L852.486,1144.21L852.486,1144.74L860,1144.94L860,1144.41ZM776,1143.98L776,1144.51L783.514,1144.71L783.514,1144.19L776,1143.98ZM860,1143.36L852.486,1143.15L852.486,1143.68L860,1143.88L860,1143.36ZM776,1142.92L776,1143.45L783.514,1143.66L783.514,1143.13L776,1142.92ZM860,1142.3L852.486,1142.09L852.486,1142.62L860,1142.83L860,1142.3ZM776,1141.87L776,1142.39L783.514,1142.6L783.514,1142.07L776,1141.87ZM860,1141.24L852.486,1141.04L852.486,1141.56L860,1141.77L860,1141.24ZM776,1140.81L776,1141.34L783.514,1141.54L783.514,1141.02L776,1140.81ZM860,1140.18L852.486,1139.98L852.486,1140.51L860,1140.71L860,1140.18ZM776,1139.75L776,1140.28L783.514,1140.49L783.514,1139.96L776,1139.75ZM860,1139.13L852.486,1138.92L852.486,1139.45L860,1139.66L860,1139.13ZM776,1138.69L776,1139.22L783.514,1139.43L783.514,1138.9L776,1138.69ZM860,1138.07L852.486,1137.86L852.486,1138.39L860,1138.6L860,1138.07ZM776,1137.64L776,1138.17L783.514,1138.37L783.514,1137.84L776,1137.64ZM860,1137.01L852.486,1136.81L852.486,1137.34L860,1137.54L860,1137.01ZM776,1136.58L776,1137.11L783.514,1137.32L783.514,1136.79L776,1136.58ZM860,1135.95L852.486,1135.75L852.486,1136.28L860,1136.48L860,1135.95ZM776,1135.52L776,1136.05L783.514,1136.26L783.514,1135.73L776,1135.52ZM860,1134.9L852.486,1134.69L852.486,1135.22L860,1135.43L860,1134.9ZM776,1134.47L776,1135L783.514,1135.2L783.514,1134.67L776,1134.47ZM860,1133.84L852.486,1133.63L852.486,1134.16L860,1134.37L860,1133.84ZM776,1133.41L776,1133.94L783.514,1134.14L783.514,1133.62L776,1133.41ZM860,1132.78L852.486,1132.58L852.486,1133.11L860,1133.31L860,1132.78ZM776,1132.35L776,1132.88L783.514,1133.09L783.514,1132.56L776,1132.35ZM860,1131.73L852.486,1131.52L852.486,1132.05L860,1132.26L860,1131.73ZM776,1131.3L776,1131.83L783.514,1132.03L783.514,1131.5L776,1131.3ZM860,1130.67L852.486,1130.46L852.486,1130.99L860,1131.2L860,1130.67ZM776,1130.24L776,1130.77L783.514,1130.97L783.514,1130.44L776,1130.24ZM860,1129.61L852.486,1129.41L852.486,1129.93L860,1130.14L860,1129.61ZM776,1129.18L776,1129.71L783.514,1129.92L783.514,1129.39L776,1129.18ZM860,1128.56L852.486,1128.35L852.486,1128.88L860,1129.08L860,1128.56ZM776,1128.12L776,1128.65L783.514,1128.86L783.514,1128.33L776,1128.12ZM860,1127.5L852.486,1127.29L852.486,1127.82L860,1128.03L860,1127.5ZM776,1127.07L776,1127.6L783.514,1127.8L783.514,1127.27L776,1127.07ZM860,1126.44L852.486,1126.24L852.486,1126.76L860,1126.97L860,1126.44ZM776,1126.01L776,1126.54L783.514,1126.75L783.514,1126.22L776,1126.01ZM860,1125.38L852.486,1125.18L852.486,1125.71L860,1125.91L860,1125.38ZM776,1124.95L776,1125.48L783.514,1125.69L783.514,1125.16L776,1124.95ZM860,1124.33L852.486,1124.12L852.486,1124.65L860,1124.86L860,1124.33ZM776,1123.9L776,1124.42L783.514,1124.63L783.514,1124.1L776,1123.9ZM860,1123.27L852.486,1123.06L852.486,1123.59L860,1123.8L860,1123.27ZM776,1122.84L776,1123.37L783.514,1123.57L783.514,1123.05L776,1122.84ZM860,1122.21L852.486,1122.01L852.486,1122.54L860,1122.74L860,1122.21ZM776,1121.78L776,1122.31L783.514,1122.52L783.514,1121.99L776,1121.78ZM860,1121.16L852.486,1120.95L852.486,1121.48L860,1121.68L860,1121.16ZM776,1120.73L776,1121.25L783.514,1121.46L783.514,1120.93L776,1120.73ZM860,1120.1L852.486,1119.89L852.486,1120.42L860,1120.63L860,1120.1ZM776,1119.67L776,1120.2L783.514,1120.4L783.514,1119.88L776,1119.67ZM860,1119.04L852.486,1118.84L852.486,1119.37L860,1119.57L860,1119.04ZM776,1118.61L776,1119.14L783.514,1119.35L783.514,1118.82L776,1118.61ZM860,1117.99L852.486,1117.78L852.486,1118.31L860,1118.51L860,1117.99ZM776,1117.55L776,1118.08L783.514,1118.29L783.514,1117.76L776,1117.55ZM860,1116.93L852.486,1116.72L852.486,1117.25L860,1117.46L860,1116.93ZM776,1116.5L776,1117.03L783.514,1117.23L783.514,1116.7L776,1116.5ZM860,1115.87L852.486,1115.66L852.486,1116.19L860,1116.4L860,1115.87ZM776,1115.44L776,1115.97L783.514,1116.17L783.514,1115.65L776,1115.44ZM860,1114.82L852.486,1114.61L852.486,1115.14L860,1115.34L860,1114.82ZM776,1114.38L776,1114.91L783.514,1115.12L783.514,1114.59L776,1114.38ZM860,1113.76L852.486,1113.55L852.486,1114.08L860,1114.29L860,1113.76ZM776,1113.33L776,1113.86L783.514,1114.06L783.514,1113.53L776,1113.33ZM860,1112.7L852.486,1112.5L852.486,1113.02L860,1113.23L860,1112.7ZM776,1112.27L776,1112.8L783.514,1113L783.514,1112.48L776,1112.27ZM860,1111.64L852.486,1111.44L852.486,1111.97L860,1112.17L860,1111.64ZM776,1111.21L776,1111.74L783.514,1111.95L783.514,1111.42L776,1111.21ZM860,1110.59L852.486,1110.38L852.486,1110.91L860,1111.12L860,1110.59ZM776,1110.15L776,1110.68L783.514,1110.89L783.514,1110.36L776,1110.15ZM860,1109.53L852.486,1109.32L852.486,1109.85L860,1110.06L860,1109.53ZM776,1109.1L776,1109.63L783.514,1109.83L783.514,1109.3L776,1109.1ZM860,1108.47L852.486,1108.27L852.486,1108.8L860,1109L860,1108.47ZM776,1108.04L776,1108.57L783.514,1108.78L783.514,1108.25L776,1108.04ZM860,1107.42L852.486,1107.21L852.486,1107.74L860,1107.94L860,1107.42ZM776,1106.98L776,1107.51L783.514,1107.72L783.514,1107.19L776,1106.98ZM860,1106.36L852.486,1106.15L852.486,1106.68L860,1106.89L860,1106.36ZM776,1105.93L776,1106.45L783.514,1106.66L783.514,1106.13L776,1105.93ZM860,1105.3L852.486,1105.1L852.486,1105.62L860,1105.83L860,1105.3ZM776,1104.87L776,1105.4L783.514,1105.6L783.514,1105.08L776,1104.87ZM860,1104.25L852.486,1104.04L852.486,1104.57L860,1104.77L860,1104.25ZM776,1103.81L776,1104.34L783.514,1104.55L783.514,1104.02L776,1103.81ZM860,1103.19L852.486,1102.98L852.486,1103.51L860,1103.72L860,1103.19ZM776,1102.76L776,1103.28L783.514,1103.49L783.514,1102.96L776,1102.76ZM860,1102.13L852.486,1101.92L852.486,1102.45L860,1102.66L860,1102.13ZM776,1101.7L776,1102.23L783.514,1102.43L783.514,1101.9L776,1101.7ZM860,1101.07L852.486,1100.87L852.486,1101.4L860,1101.6L860,1101.07ZM776,1100.64L776,1101.17L783.514,1101.38L783.514,1100.85L776,1100.64ZM860,1100.02L852.486,1099.81L852.486,1100.34L860,1100.55L860,1100.02ZM776,1099.59L776,1100.11L783.514,1100.32L783.514,1099.79L776,1099.59ZM860,1098.96L852.486,1098.75L852.486,1099.28L860,1099.49L860,1098.96ZM776,1098.53L776,1099.06L783.514,1099.26L783.514,1098.73L776,1098.53ZM860,1097.9L852.486,1097.7L852.486,1098.23L860,1098.43L860,1097.9ZM776,1097.47L776,1098L783.514,1098.2L783.514,1097.68L776,1097.47ZM860,1096.85L852.486,1096.64L852.486,1097.17L860,1097.37L860,1096.85ZM776,1096.41L776,1096.94L783.514,1097.15L783.514,1096.62L776,1096.41ZM860,1095.79L852.486,1095.58L852.486,1096.11L860,1096.32L860,1095.79ZM776,1095.36L776,1095.88L783.514,1096.09L783.514,1095.56L776,1095.36ZM860,1094.73L852.486,1094.53L852.486,1095.05L860,1095.26L860,1094.73ZM776,1094.3L776,1094.83L783.514,1095.03L783.514,1094.51L776,1094.3ZM860,1093.67L852.486,1093.47L852.486,1094L860,1094.2L860,1093.67ZM776,1093.24L776,1093.77L783.514,1093.98L783.514,1093.45L776,1093.24ZM860,1092.62L852.486,1092.41L852.486,1092.94L860,1093.15L860,1092.62ZM776,1092.19L776,1092.71L783.514,1092.92L783.514,1092.39L776,1092.19ZM860,1091.56L852.486,1091.35L852.486,1091.88L860,1092.09L860,1091.56ZM776,1091.13L776,1091.66L783.514,1091.86L783.514,1091.34L776,1091.13ZM860,1090.5L852.486,1090.3L852.486,1090.83L860,1091.03L860,1090.5ZM776,1090.07L776,1090.6L783.514,1090.81L783.514,1090.28L776,1090.07ZM860,1089.45L852.486,1089.24L852.486,1089.77L860,1089.97L860,1089.45ZM776,1089.02L776,1089.54L783.514,1089.75L783.514,1089.22L776,1089.02ZM860,1088.39L852.486,1088.18L852.486,1088.71L860,1088.92L860,1088.39ZM776,1087.96L776,1088.49L783.514,1088.69L783.514,1088.16L776,1087.96ZM860,1087.33L852.486,1087.12L852.486,1087.65L860,1087.86L860,1087.33ZM776,1086.9L776,1087.43L783.514,1087.63L783.514,1087.11L776,1086.9ZM860,1086.27L852.486,1086.07L852.486,1086.6L860,1086.8L860,1086.27ZM776,1085.84L776,1086.37L783.514,1086.58L783.514,1086.05L776,1085.84ZM860,1085.22L852.486,1085.01L852.486,1085.54L860,1085.75L860,1085.22ZM776,1084.79L776,1085.32L783.514,1085.52L783.514,1084.99L776,1084.79ZM860,1084.16L852.486,1083.95L852.486,1084.48L860,1084.69L860,1084.16ZM776,1083.73L776,1084.26L783.514,1084.46L783.514,1083.94L776,1083.73ZM860,1083.1L852.486,1082.9L852.486,1083.42L860,1083.63L860,1083.1ZM776,1082.67L776,1083.2L783.514,1083.41L783.514,1082.88L776,1082.67ZM860,1082.05L852.486,1081.84L852.486,1082.37L860,1082.57L860,1082.05ZM776,1081.62L776,1082.14L783.514,1082.35L783.514,1081.82L776,1081.62ZM860,1080.99L852.486,1080.78L852.486,1081.31L860,1081.52L860,1080.99ZM776,1080.56L776,1081.09L783.514,1081.29L783.514,1080.77L776,1080.56ZM860,1079.93L852.486,1079.72L852.486,1080.25L860,1080.46L860,1079.93ZM776,1079.5L776,1080.03L783.514,1080.24L783.514,1079.71L776,1079.5ZM860,1078.87L852.486,1078.67L852.486,1079.2L860,1079.4L860,1078.87ZM776,1078.44L776,1078.97L783.514,1079.18L783.514,1078.65L776,1078.44ZM860,1077.82L852.486,1077.61L852.486,1078.14L860,1078.35L860,1077.82ZM776,1077.39L776,1077.92L783.514,1078.12L783.514,1077.59L776,1077.39ZM860,1076.76L852.486,1076.55L852.486,1077.08L860,1077.29L860,1076.76ZM776,1076.33L776,1076.86L783.514,1077.07L783.514,1076.54L776,1076.33ZM860,1075.7L852.486,1075.5L852.486,1076.03L860,1076.23L860,1075.7ZM776,1075.27L776,1075.8L783.514,1076.01L783.514,1075.48L776,1075.27ZM860,1074.65L852.486,1074.44L852.486,1074.97L860,1075.17L860,1074.65ZM776,1074.22L776,1074.74L783.514,1074.95L783.514,1074.42L776,1074.22ZM860,1073.59L852.486,1073.38L852.486,1073.91L860,1074.12L860,1073.59ZM776,1073.16L776,1073.69L783.514,1073.89L783.514,1073.37L776,1073.16ZM860,1072.53L852.486,1072.33L852.486,1072.85L860,1073.06L860,1072.53ZM776,1072.1L776,1072.63L783.514,1072.84L783.514,1072.31L776,1072.1ZM860,1071.47L852.486,1071.27L852.486,1071.8L860,1072L860,1071.47ZM776,1071.04L776,1071.57L783.514,1071.78L783.514,1071.25L776,1071.04ZM860,1070.42L852.486,1070.21L852.486,1070.74L860,1070.95L860,1070.42ZM776,1069.99L776,1070.52L783.514,1070.72L783.514,1070.19L776,1069.99ZM860,1069.36L852.486,1069.15L852.486,1069.68L860,1069.89L860,1069.36ZM776,1068.93L776,1069.46L783.514,1069.66L783.514,1069.14L776,1068.93ZM860,1068.3L852.486,1068.1L852.486,1068.63L860,1068.83L860,1068.3ZM776,1067.87L776,1068.4L783.514,1068.61L783.514,1068.08L776,1067.87ZM860,1067.25L852.486,1067.04L852.486,1067.57L860,1067.78L860,1067.25ZM776,1066.82L776,1067.35L783.514,1067.55L783.514,1067.02L776,1066.82ZM860,1066.19L852.486,1065.98L852.486,1066.51L860,1066.72L860,1066.19ZM776,1065.76L776,1066.29L783.514,1066.49L783.514,1065.97L776,1065.76ZM860,1065.13L852.486,1064.93L852.486,1065.45L860,1065.66L860,1065.13ZM776,1064.7L776,1065.23L783.514,1065.44L783.514,1064.91L776,1064.7ZM860,1064.08L852.486,1063.87L852.486,1064.4L860,1064.6L860,1064.08ZM776,1063.65L776,1064.17L783.514,1064.38L783.514,1063.85L776,1063.65ZM860,1063.02L852.486,1062.81L852.486,1063.34L860,1063.55L860,1063.02ZM776,1062.59L776,1063.12L783.514,1063.32L783.514,1062.8L776,1062.59ZM860,1061.96L852.486,1061.76L852.486,1062.28L860,1062.49L860,1061.96ZM776,1061.53L776,1062.06L783.514,1062.27L783.514,1061.74L776,1061.53ZM860,1060.9L852.486,1060.7L852.486,1061.23L860,1061.43L860,1060.9ZM776,1060.47L776,1061L783.514,1061.21L783.514,1060.68L776,1060.47ZM860,1059.85L852.486,1059.64L852.486,1060.17L860,1060.38L860,1059.85ZM776,1059.42L776,1059.95L783.514,1060.15L783.514,1059.62L776,1059.42ZM860,1058.79L852.486,1058.58L852.486,1059.11L860,1059.32L860,1058.79ZM776,1058.36L776,1058.89L783.514,1059.1L783.514,1058.57L776,1058.36ZM860,1057.73L852.486,1057.53L852.486,1058.06L860,1058.26L860,1057.73ZM776,1057.3L776,1057.83L783.514,1058.04L783.514,1057.51L776,1057.3ZM860,1056.68L852.486,1056.47L852.486,1057L860,1057.2L860,1056.68ZM776,1056.25L776,1056.78L783.514,1056.98L783.514,1056.45L776,1056.25ZM860,1055.62L852.486,1055.41L852.486,1055.94L860,1056.15L860,1055.62ZM776,1055.19L776,1055.72L783.514,1055.92L783.514,1055.4L776,1055.19ZM860,1054.56L852.486,1054.36L852.486,1054.88L860,1055.09L860,1054.56ZM776,1054.13L776,1054.66L783.514,1054.87L783.514,1054.34L776,1054.13ZM860,1053.51L852.486,1053.3L852.486,1053.83L860,1054.03L860,1053.51ZM776,1053.08L776,1053.6L783.514,1053.81L783.514,1053.28L776,1053.08ZM860,1052.45L852.486,1052.24L852.486,1052.77L860,1052.98L860,1052.45ZM776,1052.02L776,1052.55L783.514,1052.75L783.514,1052.22L776,1052.02ZM860,1051.39L852.486,1051.19L852.486,1051.71L860,1051.92L860,1051.39ZM776,1050.96L776,1051.49L783.514,1051.7L783.514,1051.17L776,1050.96ZM860,1050.34L852.486,1050.13L852.486,1050.66L860,1050.86L860,1050.34ZM776,1049.9L776,1050.43L783.514,1050.64L783.514,1050.11L776,1049.9ZM860,1049.28L852.486,1049.07L852.486,1049.6L860,1049.81L860,1049.28ZM776,1048.85L776,1049.38L783.514,1049.58L783.514,1049.05L776,1048.85ZM860,1048.22L852.486,1048.02L852.486,1048.54L860,1048.75L860,1048.22ZM776,1047.79L776,1048.32L783.514,1048.52L783.514,1048L776,1047.79ZM860,1047.16L852.486,1046.96L852.486,1047.49L860,1047.69L860,1047.16ZM776,1046.73L776,1047.26L783.514,1047.47L783.514,1046.94L776,1046.73ZM860,1046.11L852.486,1045.9L852.486,1046.43L860,1046.63L860,1046.11ZM776,1045.68L776,1046.2L783.514,1046.41L783.514,1045.88L776,1045.68ZM860,1045.05L852.486,1044.84L852.486,1045.37L860,1045.58L860,1045.05ZM776,1044.62L776,1045.15L783.514,1045.35L783.514,1044.83L776,1044.62ZM860,1043.99L852.486,1043.79L852.486,1044.32L860,1044.52L860,1043.99ZM776,1043.56L776,1044.09L783.514,1044.3L783.514,1043.77L776,1043.56ZM860,1042.94L852.486,1042.73L852.486,1043.26L860,1043.46L860,1042.94ZM776,1042.51L776,1043.03L783.514,1043.24L783.514,1042.71L776,1042.51ZM860,1041.88L852.486,1041.67L852.486,1042.2L860,1042.41L860,1041.88ZM776,1041.45L776,1041.98L783.514,1042.18L783.514,1041.65L776,1041.45ZM860,1040.82L852.486,1040.62L852.486,1041.14L860,1041.35L860,1040.82ZM776,1040.39L776,1040.92L783.514,1041.12L783.514,1040.6L776,1040.39ZM860,1039.76L852.486,1039.56L852.486,1040.09L860,1040.29L860,1039.76ZM776,1039.33L776,1039.86L783.514,1040.07L783.514,1039.54L776,1039.33ZM860,1038.71L852.486,1038.5L852.486,1039.03L860,1039.24L860,1038.71ZM776,1038.28L776,1038.8L783.514,1039.01L783.514,1038.48L776,1038.28ZM860,1037.65L852.486,1037.44L852.486,1037.97L860,1038.18L860,1037.65ZM776,1037.22L776,1037.75L783.514,1037.95L783.514,1037.42L776,1037.22ZM860,1036.59L852.486,1036.39L852.486,1036.91L860,1037.12L860,1036.59ZM776,1036.16L776,1036.69L783.514,1036.9L783.514,1036.37L776,1036.16ZM860,1035.54L852.486,1035.33L852.486,1035.86L860,1036.06L860,1035.54ZM776,1035.11L776,1035.63L783.514,1035.84L783.514,1035.31L776,1035.11ZM860,1034.48L852.486,1034.27L852.486,1034.8L860,1035.01L860,1034.48ZM776,1034.05L776,1034.58L783.514,1034.78L783.514,1034.25L776,1034.05ZM860,1033.42L852.486,1033.22L852.486,1033.74L860,1033.95L860,1033.42ZM776,1032.99L776,1033.52L783.514,1033.73L783.514,1033.2L776,1032.99ZM860,1032.37L852.486,1032.16L852.486,1032.69L860,1032.89L860,1032.37ZM776,1031.93L776,1032.46L783.514,1032.67L783.514,1032.14L776,1031.93ZM860,1031.31L852.486,1031.1L852.486,1031.63L860,1031.84L860,1031.31ZM776,1030.88L776,1031.4L783.514,1031.61L783.514,1031.08L776,1030.88ZM860,1030.25L852.486,1030.05L852.486,1030.57L860,1030.78L860,1030.25ZM776,1029.82L776,1030.35L783.514,1030.55L783.514,1030.03L776,1029.82ZM860,1029.19L852.486,1028.99L852.486,1029.52L860,1029.72L860,1029.19ZM776,1028.76L776,1029.29L783.514,1029.5L783.514,1028.97L776,1028.76ZM860,1028.14L852.486,1027.93L852.486,1028.46L860,1028.67L860,1028.14ZM776,1027.7L776,1028.23L783.514,1028.44L783.514,1027.91L776,1027.7ZM860,1027.08L852.486,1026.87L852.486,1027.4L860,1027.61L860,1027.08ZM776,1026.65L776,1027.18L783.514,1027.38L783.514,1026.85L776,1026.65ZM860,1026.02L852.486,1025.82L852.486,1026.35L860,1026.55L860,1026.02ZM776,1025.59L776,1026.12L783.514,1026.33L783.514,1025.8L776,1025.59ZM860,1024.97L852.486,1024.76L852.486,1025.29L860,1025.5L860,1024.97ZM776,1024.53L776,1025.06L783.514,1025.27L783.514,1024.74L776,1024.53ZM860,1023.91L852.486,1023.7L852.486,1024.23L860,1024.44L860,1023.91ZM776,1023.48L776,1024.01L783.514,1024.21L783.514,1023.68L776,1023.48ZM860,1022.85L852.486,1022.65L852.486,1023.18L860,1023.38L860,1022.85ZM776,1022.42L776,1022.95L783.514,1023.15L783.514,1022.63L776,1022.42ZM860,1021.8L852.486,1021.59L852.486,1022.12L860,1022.32L860,1021.8ZM776,1021.36L776,1021.89L783.514,1022.1L783.514,1021.57L776,1021.36ZM860,1020.74L852.486,1020.53L852.486,1021.06L860,1021.27L860,1020.74ZM776,1020.31L776,1020.84L783.514,1021.04L783.514,1020.51L776,1020.31ZM860,1019.68L852.486,1019.48L852.486,1020L860,1020.21L860,1019.68ZM776,1019.25L776,1019.78L783.514,1019.99L783.514,1019.46L776,1019.25ZM860,1018.62L852.486,1018.42L852.486,1018.95L860,1019.15L860,1018.62ZM776,1018.19L776,1018.72L783.514,1018.93L783.514,1018.4L776,1018.19ZM860,1017.57L852.486,1017.36L852.486,1017.89L860,1018.1L860,1017.57ZM776,1017.14L776,1017.66L783.514,1017.87L783.514,1017.34L776,1017.14ZM860,1016.51L852.486,1016.31L852.486,1016.83L860,1017.04L860,1016.51ZM776,1016.08L776,1016.61L783.514,1016.81L783.514,1016.28L776,1016.08ZM860,1015.45L852.486,1015.25L852.486,1015.78L860,1015.98L860,1015.45ZM776,1015.02L776,1015.55L783.514,1015.76L783.514,1015.23L776,1015.02ZM860,1014.4L852.486,1014.19L852.486,1014.72L860,1014.93L860,1014.4ZM776,1013.97L776,1014.49L783.514,1014.7L783.514,1014.17L776,1013.97ZM860,1013.34L852.486,1013.13L852.486,1013.66L860,1013.87L860,1013.34ZM776,1012.91L776,1013.44L783.514,1013.64L783.514,1013.11L776,1012.91ZM860,1012.28L852.486,1012.08L852.486,1012.61L860,1012.81L860,1012.28ZM776,1011.85L776,1012.38L783.514,1012.59L783.514,1012.06L776,1011.85ZM860,1011.23L852.486,1011.02L852.486,1011.55L860,1011.75L860,1011.23ZM776,1010.79L776,1011.32L783.514,1011.53L783.514,1011L776,1010.79ZM860,1010.17L852.486,1009.96L852.486,1010.49L860,1010.7L860,1010.17ZM776,1009.74L776,1010.26L783.514,1010.47L783.514,1009.94L776,1009.74ZM860,1009.11L852.486,1008.91L852.486,1009.43L860,1009.64L860,1009.11ZM776,1008.68L776,1009.21L783.514,1009.41L783.514,1008.88L776,1008.68ZM860,1008.06L852.486,1007.85L852.486,1008.38L860,1008.58L860,1008.06ZM776,1007.62L776,1008.15L783.514,1008.36L783.514,1007.83L776,1007.62ZM860,1007L852.486,1006.79L852.486,1007.32L860,1007.53L860,1007ZM776,1006.57L776,1007.09L783.514,1007.3L783.514,1006.77L776,1006.57ZM860,1005.94L852.486,1005.74L852.486,1006.26L860,1006.47L860,1005.94ZM776,1005.51L776,1006.04L783.514,1006.24L783.514,1005.72L776,1005.51ZM860,1004.88L852.486,1004.68L852.486,1005.21L860,1005.41L860,1004.88ZM776,1004.45L776,1004.98L783.514,1005.19L783.514,1004.66L776,1004.45ZM860,1003.83L852.486,1003.62L852.486,1004.15L860,1004.36L860,1003.83ZM776,1003.39L776,1003.92L783.514,1004.13L783.514,1003.6L776,1003.39ZM860,1002.77L852.486,1002.56L852.486,1003.09L860,1003.3L860,1002.77ZM776,1002.34L776,1002.87L783.514,1003.07L783.514,1002.54L776,1002.34ZM860,1001.71L852.486,1001.51L852.486,1002.03L860,1002.24L860,1001.71ZM776,1001.28L776,1001.81L783.514,1002.01L783.514,1001.49L776,1001.28ZM860,1000.66L852.486,1000.45L852.486,1000.98L860,1001.19L860,1000.66ZM776,1000.22L776,1000.75L783.514,1000.96L783.514,1000.43L776,1000.22ZM860,999.599L852.486,999.393L852.486,999.921L860,1000.13L860,999.599ZM776,999.167L776,999.695L783.514,999.901L783.514,999.373L776,999.167ZM860,998.542L852.486,998.336L852.486,998.864L860,999.07L860,998.542ZM776,998.11L776,998.638L783.514,998.845L783.514,998.316L776,998.11ZM860,997.485L852.486,997.279L852.486,997.807L860,998.013L860,997.485ZM776,997.053L776,997.581L783.514,997.788L783.514,997.259L776,997.053ZM860,996.428L852.486,996.222L852.486,996.75L860,996.956L860,996.428ZM776,995.996L776,996.524L783.514,996.731L783.514,996.202L776,995.996ZM860,995.371L852.486,995.165L852.486,995.693L860,995.899L860,995.371ZM776,994.939L776,995.467L783.514,995.674L783.514,995.145L776,994.939ZM860,994.314L852.486,994.107L852.486,994.636L860,994.842L860,994.314ZM776,993.882L776,994.411L783.514,994.617L783.514,994.088L776,993.882ZM860,993.256L852.486,993.05L852.486,993.579L860,993.785L860,993.256ZM776,992.825L776,993.354L783.514,993.56L783.514,993.032L776,992.825ZM860,992.199L852.486,991.993L852.486,992.521L860,992.727L860,992.199ZM776,991.768L776,992.297L783.514,992.503L783.514,991.974L776,991.768ZM860,991.141L852.486,990.935L852.486,991.464L860,991.67L860,991.141ZM776,990.711L776,991.24L783.514,991.446L783.514,990.917L776,990.711ZM860,990.084L852.486,989.878L852.486,990.407L860,990.613L860,990.084ZM776,989.654L776,990.183L783.514,990.389L783.514,989.86L776,989.654ZM860,989.027L852.486,988.821L852.486,989.349L860,989.555L860,989.027ZM776,988.597L776,989.125L783.514,989.332L783.514,988.803L776,988.597ZM860,987.97L852.486,987.764L852.486,988.292L860,988.499L860,987.97ZM776,987.54L776,988.069L783.514,988.275L783.514,987.746L776,987.54ZM860,986.913L852.486,986.707L852.486,987.235L860,987.442L860,986.913ZM776,986.483L776,987.011L783.514,987.217L783.514,986.689L776,986.483ZM860,985.856L852.486,985.65L852.486,986.178L860,986.385L860,985.856ZM776,985.426L776,985.954L783.514,986.16L783.514,985.632L776,985.426ZM860,984.799L852.486,984.593L852.486,985.122L860,985.328L860,984.799ZM776,984.368L776,984.897L783.514,985.103L783.514,984.575L776,984.368ZM860,983.742L852.486,983.536L852.486,984.064L860,984.27L860,983.742ZM776,983.312L776,983.84L783.514,984.046L783.514,983.518L776,983.312ZM860,982.685L852.486,982.479L852.486,983.008L860,983.214L860,982.685ZM776,982.255L776,982.783L783.514,982.989L783.514,982.461L776,982.255ZM860,981.628L852.486,981.422L852.486,981.951L860,982.157L860,981.628ZM776,981.198L776,981.726L783.514,981.932L783.514,981.404L776,981.198ZM860,980.571L852.486,980.365L852.486,980.893L860,981.1L860,980.571ZM776,980.141L776,980.669L783.514,980.875L783.514,980.347L776,980.141ZM860,979.514L852.486,979.308L852.486,979.836L860,980.043L860,979.514ZM776,979.084L776,979.612L783.514,979.818L783.514,979.29L776,979.084ZM860,978.457L852.486,978.251L852.486,978.78L860,978.986L860,978.457ZM776,978.027L776,978.555L783.514,978.761L783.514,978.233L776,978.027ZM860,977.4L852.486,977.194L852.486,977.723L860,977.929L860,977.4ZM776,976.969L776,977.498L783.514,977.704L783.514,977.175L776,976.969ZM860,976.343L852.486,976.137L852.486,976.665L860,976.872L860,976.343ZM776,975.912L776,976.441L783.514,976.647L783.514,976.118L776,975.912ZM860,975.286L852.486,975.08L852.486,975.609L860,975.815L860,975.286ZM776,974.855L776,975.384L783.514,975.59L783.514,975.062L776,974.855ZM860,974.229L852.486,974.023L852.486,974.552L860,974.758L860,974.229ZM776,973.798L776,974.327L783.514,974.533L783.514,974.005L776,973.798ZM860,973.172L852.486,972.966L852.486,973.495L860,973.701L860,973.172ZM776,972.741L776,973.27L783.514,973.476L783.514,972.948L776,972.741ZM860,972.115L852.486,971.909L852.486,972.438L860,972.644L860,972.115ZM776,971.684L776,972.213L783.514,972.419L783.514,971.89L776,971.684ZM860,971.058L852.486,970.852L852.486,971.381L860,971.587L860,971.058ZM776,970.627L776,971.156L783.514,971.362L783.514,970.833L776,970.627ZM860,970.001L852.486,969.795L852.486,970.324L860,970.53L860,970.001ZM776,969.57L776,970.098L783.514,970.305L783.514,969.776L776,969.57ZM860,968.944L852.486,968.738L852.486,969.267L860,969.473L860,968.944ZM776,968.513L776,969.042L783.514,969.248L783.514,968.719L776,968.513ZM860,967.887L852.486,967.681L852.486,968.21L860,968.416L860,967.887ZM776,967.456L776,967.985L783.514,968.191L783.514,967.662L776,967.456ZM860,966.83L852.486,966.624L852.486,967.152L860,967.358L860,966.83ZM776,966.399L776,966.927L783.514,967.133L783.514,966.605L776,966.399ZM860,965.773L852.486,965.567L852.486,966.095L860,966.301L860,965.773ZM776,965.342L776,965.87L783.514,966.077L783.514,965.548L776,965.342ZM860,964.716L852.486,964.51L852.486,965.038L860,965.244L860,964.716ZM776,964.285L776,964.814L783.514,965.02L783.514,964.491L776,964.285ZM860,963.659L852.486,963.453L852.486,963.981L860,964.187L860,963.659ZM776,963.228L776,963.757L783.514,963.963L783.514,963.434L776,963.228ZM860,962.602L852.486,962.396L852.486,962.924L860,963.131L860,962.602ZM776,962.171L776,962.7L783.514,962.906L783.514,962.377L776,962.171ZM860,961.545L852.486,961.339L852.486,961.867L860,962.074L860,961.545ZM776,961.114L776,961.642L783.514,961.849L783.514,961.32L776,961.114ZM860,960.488L852.486,960.282L852.486,960.81L860,961.017L860,960.488ZM776,960.057L776,960.585L783.514,960.792L783.514,960.263L776,960.057ZM860,959.431L852.486,959.225L852.486,959.754L860,959.96L860,959.431ZM776,959L776,959.529L783.514,959.735L783.514,959.206L776,959ZM860,958.374L852.486,958.168L852.486,958.697L860,958.903L860,958.374ZM776,957.943L776,958.472L783.514,958.678L783.514,958.15L776,957.943ZM860,957.317L852.486,957.111L852.486,957.64L860,957.846L860,957.317ZM776,956.886L776,957.415L783.514,957.621L783.514,957.092L776,956.886ZM860,956.26L852.486,956.054L852.486,956.582L860,956.789L860,956.26ZM776,955.829L776,956.357L783.514,956.563L783.514,956.035L776,955.829ZM860,955.203L852.486,954.997L852.486,955.525L860,955.731L860,955.203ZM776,954.772L776,955.3L783.514,955.507L783.514,954.978L776,954.772ZM860,954.146L852.486,953.94L852.486,954.468L860,954.675L860,954.146ZM776,953.715L776,954.243L783.514,954.449L783.514,953.921L776,953.715ZM860,953.089L852.486,952.883L852.486,953.411L860,953.618L860,953.089ZM776,952.658L776,953.186L783.514,953.392L783.514,952.864L776,952.658ZM860,952.032L852.486,951.826L852.486,952.354L860,952.56L860,952.032ZM776,951.601L776,952.129L783.514,952.336L783.514,951.807L776,951.601ZM860,950.974L852.486,950.768L852.486,951.297L860,951.503L860,950.974ZM776,950.544L776,951.072L783.514,951.278L783.514,950.75L776,950.544ZM860,949.917L852.486,949.711L852.486,950.24L860,950.446L860,949.917ZM776,949.487L776,950.015L783.514,950.221L783.514,949.693L776,949.487ZM860,948.86L852.486,948.654L852.486,949.183L860,949.389L860,948.86ZM776,948.43L776,948.958L783.514,949.164L783.514,948.636L776,948.43ZM860,947.803L852.486,947.597L852.486,948.126L860,948.332L860,947.803ZM776,947.373L776,947.901L783.514,948.107L783.514,947.579L776,947.373ZM860,946.746L852.486,946.54L852.486,947.069L860,947.275L860,946.746ZM776,946.316L776,946.844L783.514,947.05L783.514,946.522L776,946.316ZM860,945.689L852.486,945.483L852.486,946.012L860,946.218L860,945.689ZM776,945.259L776,945.787L783.514,945.993L783.514,945.465L776,945.259ZM860,944.632L852.486,944.426L852.486,944.955L860,945.161L860,944.632ZM776,944.201L776,944.73L783.514,944.936L783.514,944.408L776,944.201ZM860,943.575L852.486,943.369L852.486,943.897L860,944.103L860,943.575ZM776,943.144L776,943.673L783.514,943.879L783.514,943.35L776,943.144ZM860,942.518L852.486,942.311L852.486,942.84L860,943.046L860,942.518ZM776,942.087L776,942.615L783.514,942.822L783.514,942.293L776,942.087ZM860,941.46L852.486,941.254L852.486,941.783L860,941.989L860,941.46ZM776,941.03L776,941.558L783.514,941.764L783.514,941.236L776,941.03ZM860,940.404L852.486,940.197L852.486,940.726L860,940.932L860,940.404ZM776,939.973L776,940.501L783.514,940.707L783.514,940.179L776,939.973ZM860,939.346L852.486,939.14L852.486,939.669L860,939.875L860,939.346ZM776,938.916L776,939.444L783.514,939.651L783.514,939.122L776,938.916ZM860,938.29L852.486,938.084L852.486,938.612L860,938.818L860,938.29ZM776,937.859L776,938.387L783.514,938.593L783.514,938.065L776,937.859ZM860,937.233L852.486,937.027L852.486,937.555L860,937.761L860,937.233ZM776,936.802L776,937.33L783.514,937.536L783.514,937.008L776,936.802ZM860,936.176L852.486,935.97L852.486,936.498L860,936.704L860,936.176ZM776,935.745L776,936.273L783.514,936.479L783.514,935.951L776,935.745ZM860,935.119L852.486,934.913L852.486,935.441L860,935.647L860,935.119ZM776,934.688L776,935.216L783.514,935.422L783.514,934.894L776,934.688ZM860,934.062L852.486,933.856L852.486,934.384L860,934.59L860,934.062ZM776,933.631L776,934.159L783.514,934.365L783.514,933.837L776,933.631ZM860,933.005L852.486,932.799L852.486,933.327L860,933.533L860,933.005ZM776,932.574L776,933.102L783.514,933.308L783.514,932.78L776,932.574ZM860,931.947L852.486,931.741L852.486,932.27L860,932.476L860,931.947ZM776,931.517L776,932.045L783.514,932.251L783.514,931.723L776,931.517ZM860,930.89L852.486,930.684L852.486,931.213L860,931.419L860,930.89ZM776,930.46L776,930.988L783.514,931.194L783.514,930.666L776,930.46ZM860,929.833L852.486,929.627L852.486,930.156L860,930.362L860,929.833ZM776,929.402L776,929.931L783.514,930.137L783.514,929.608L776,929.402ZM860,928.777L852.486,928.571L852.486,929.099L860,929.305L860,928.777ZM776,928.345L776,928.873L783.514,929.08L783.514,928.551L776,928.345ZM860,927.72L852.486,927.513L852.486,928.042L860,928.248L860,927.72ZM776,927.288L776,927.816L783.514,928.022L783.514,927.494L776,927.288ZM860,926.663L852.486,926.456L852.486,926.985L860,927.191L860,926.663ZM776,926.23L776,926.759L783.514,926.965L783.514,926.436L776,926.23ZM860,925.606L852.486,925.4L852.486,925.928L860,926.134L860,925.606ZM776,925.173L776,925.701L783.514,925.907L783.514,925.379L776,925.173ZM860,924.549L852.486,924.343L852.486,924.871L860,925.077L860,924.549ZM776,924.115L776,924.644L783.514,924.85L783.514,924.321L776,924.115ZM860,923.492L852.486,923.286L852.486,923.814L860,924.02L860,923.492ZM776,923.058L776,923.587L783.514,923.793L783.514,923.264L776,923.058ZM860,922.435L852.486,922.229L852.486,922.757L860,922.963L860,922.435ZM776,922.002L776,922.53L783.514,922.736L783.514,922.208L776,922.002ZM860,921.378L852.486,921.172L852.486,921.7L860,921.906L860,921.378ZM776,920.944L776,921.473L783.514,921.679L783.514,921.15L776,920.944ZM860,920.321L852.486,920.115L852.486,920.643L860,920.849L860,920.321ZM776,919.888L776,920.416L783.514,920.622L783.514,920.094L776,919.888ZM860,919.264L852.486,919.058L852.486,919.586L860,919.792L860,919.264ZM776,918.83L776,919.359L783.514,919.565L783.514,919.036L776,918.83ZM860,918.207L852.486,918.001L852.486,918.529L860,918.735L860,918.207ZM776,917.773L776,918.302L783.514,918.508L783.514,917.979L776,917.773ZM860,917.15L852.486,916.944L852.486,917.473L860,917.679L860,917.15ZM776,916.716L776,917.245L783.514,917.451L783.514,916.923L776,916.716ZM860,916.093L852.486,915.887L852.486,916.416L860,916.622L860,916.093ZM776,915.659L776,916.188L783.514,916.394L783.514,915.866L776,915.659ZM860,915.036L852.486,914.83L852.486,915.358L860,915.565L860,915.036ZM776,914.602L776,915.131L783.514,915.337L783.514,914.808L776,914.602ZM860,913.979L852.486,913.773L852.486,914.301L860,914.507L860,913.979ZM776,913.545L776,914.074L783.514,914.28L783.514,913.751L776,913.545ZM860,912.922L852.486,912.716L852.486,913.244L860,913.45L860,912.922ZM776,912.488L776,913.017L783.514,913.223L783.514,912.694L776,912.488ZM860,911.865L852.486,911.659L852.486,912.187L860,912.393L860,911.865ZM776,911.431L776,911.96L783.514,912.166L783.514,911.637L776,911.431ZM860,910.808L852.486,910.602L852.486,911.13L860,911.336L860,910.808ZM776,910.374L776,910.903L783.514,911.109L783.514,910.58L776,910.374ZM860,909.751L852.486,909.544L852.486,910.073L860,910.279L860,909.751ZM776,909.317L776,909.845L783.514,910.051L783.514,909.523L776,909.317ZM860,908.693L852.486,908.487L852.486,909.016L860,909.222L860,908.693ZM776,908.26L776,908.789L783.514,908.995L783.514,908.466L776,908.26ZM860,907.636L852.486,907.43L852.486,907.959L860,908.165L860,907.636ZM776,907.203L776,907.731L783.514,907.938L783.514,907.409L776,907.203ZM860,906.579L852.486,906.373L852.486,906.902L860,907.108L860,906.579ZM776,906.146L776,906.674L783.514,906.881L783.514,906.352L776,906.146ZM860,905.522L852.486,905.316L852.486,905.845L860,906.051L860,905.522ZM776,905.089L776,905.618L783.514,905.824L783.514,905.296L776,905.089ZM860,904.465L852.486,904.259L852.486,904.788L860,904.994L860,904.465ZM776,904.033L776,904.561L783.514,904.767L783.514,904.239L776,904.033ZM860,903.408L852.486,903.202L852.486,903.731L860,903.937L860,903.408ZM776,902.976L776,903.505L783.514,903.711L783.514,903.182L776,902.976ZM860,902.351L852.486,902.145L852.486,902.674L860,902.88L860,902.351ZM776,901.918L776,902.447L783.514,902.653L783.514,902.125L776,901.918ZM860,901.294L852.486,901.088L852.486,901.617L860,901.823L860,901.294ZM776,900.862L776,901.39L783.514,901.596L783.514,901.068L776,900.862ZM860,900.237L852.486,900.031L852.486,900.56L860,900.766L860,900.237ZM776,899.804L776,900.333L783.514,900.539L783.514,900.01L776,899.804ZM860,899.18L852.486,898.974L852.486,899.503L860,899.709L860,899.18ZM776,898.747L776,899.276L783.514,899.482L783.514,898.953L776,898.747ZM860,898.123L852.486,897.917L852.486,898.445L860,898.652L860,898.123ZM776,897.69L776,898.218L783.514,898.425L783.514,897.896L776,897.69ZM860,897.066L852.486,896.86L852.486,897.388L860,897.595L860,897.066ZM776,896.633L776,897.162L783.514,897.368L783.514,896.839L776,896.633ZM860,896.009L852.486,895.803L852.486,896.331L860,896.537L860,896.009ZM776,895.576L776,896.104L783.514,896.31L783.514,895.782L776,895.576ZM860,894.952L852.486,894.746L852.486,895.274L860,895.48L860,894.952ZM776,894.519L776,895.047L783.514,895.254L783.514,894.725L776,894.519ZM860,893.895L852.486,893.689L852.486,894.217L860,894.423L860,893.895ZM776,893.462L776,893.99L783.514,894.196L783.514,893.668L776,893.462ZM860,892.838L852.486,892.632L852.486,893.16L860,893.366L860,892.838ZM776,892.404L776,892.933L783.514,893.139L783.514,892.61L776,892.404ZM860,891.781L852.486,891.575L852.486,892.103L860,892.309L860,891.781ZM776,891.347L776,891.876L783.514,892.082L783.514,891.554L776,891.347ZM860,890.724L852.486,890.518L852.486,891.046L860,891.253L860,890.724ZM776,890.29L776,890.819L783.514,891.025L783.514,890.496L776,890.29ZM860,889.667L852.486,889.461L852.486,889.989L860,890.195L860,889.667ZM776,889.233L776,889.761L783.514,889.968L783.514,889.439L776,889.233ZM860,888.61L852.486,888.404L852.486,888.932L860,889.138L860,888.61ZM776,888.176L776,888.705L783.514,888.911L783.514,888.382L776,888.176ZM860,887.553L852.486,887.347L852.486,887.875L860,888.081L860,887.553ZM776,887.119L776,887.648L783.514,887.854L783.514,887.325L776,887.119ZM860,886.496L852.486,886.29L852.486,886.818L860,887.024L860,886.496ZM776,886.062L776,886.591L783.514,886.797L783.514,886.268L776,886.062ZM860,885.439L852.486,885.233L852.486,885.761L860,885.967L860,885.439ZM776,885.005L776,885.533L783.514,885.74L783.514,885.211L776,885.005ZM860,884.382L852.486,884.176L852.486,884.704L860,884.91L860,884.382ZM776,883.948L776,884.477L783.514,884.683L783.514,884.154L776,883.948ZM860,883.325L852.486,883.119L852.486,883.647L860,883.853L860,883.325ZM776,882.891L776,883.42L783.514,883.626L783.514,883.098L776,882.891ZM860,882.268L852.486,882.062L852.486,882.59L860,882.797L860,882.268ZM776,881.834L776,882.363L783.514,882.569L783.514,882.041L776,881.834ZM860,881.211L852.486,881.005L852.486,881.533L860,881.74L860,881.211ZM776,880.778L776,881.306L783.514,881.512L783.514,880.984L776,880.778ZM860,880.154L852.486,879.948L852.486,880.476L860,880.683L860,880.154ZM776,879.72L776,880.249L783.514,880.455L783.514,879.926L776,879.72ZM860,879.097L852.486,878.891L852.486,879.419L860,879.626L860,879.097ZM776,878.663L776,879.192L783.514,879.398L783.514,878.87L776,878.663ZM860,878.04L852.486,877.834L852.486,878.362L860,878.569L860,878.04ZM776,877.606L776,878.135L783.514,878.341L783.514,877.813L776,877.606ZM860,876.983L852.486,876.777L852.486,877.305L860,877.511L860,876.983ZM776,876.549L776,877.078L783.514,877.284L783.514,876.755L776,876.549ZM860,875.926L852.486,875.72L852.486,876.248L860,876.454L860,875.926ZM776,875.493L776,876.021L783.514,876.227L783.514,875.699L776,875.493ZM860,874.869L852.486,874.663L852.486,875.191L860,875.397L860,874.869ZM776,874.436L776,874.964L783.514,875.17L783.514,874.642L776,874.436ZM860,873.812L852.486,873.606L852.486,874.134L860,874.34L860,873.812ZM776,873.379L776,873.907L783.514,874.113L783.514,873.585L776,873.379ZM860,872.755L852.486,872.549L852.486,873.077L860,873.283L860,872.755ZM776,872.322L776,872.85L783.514,873.056L783.514,872.528L776,872.322ZM860,871.698L852.486,871.492L852.486,872.02L860,872.226L860,871.698ZM776,871.265L776,871.793L783.514,871.999L783.514,871.471L776,871.265ZM860,870.641L852.486,870.435L852.486,870.963L860,871.169L860,870.641ZM776,870.208L776,870.736L783.514,870.942L783.514,870.414L776,870.208ZM860,869.584L852.486,869.378L852.486,869.906L860,870.112L860,869.584ZM776,869.151L776,869.679L783.514,869.885L783.514,869.357L776,869.151ZM860,868.527L852.486,868.321L852.486,868.849L860,869.055L860,868.527ZM776,868.094L776,868.622L783.514,868.828L783.514,868.3L776,868.094ZM860,867.47L852.486,867.264L852.486,867.792L860,867.998L860,867.47ZM776,867.037L776,867.566L783.514,867.772L783.514,867.243L776,867.037ZM860,866.413L852.486,866.207L852.486,866.735L860,866.941L860,866.413ZM776,865.98L776,866.508L783.514,866.714L783.514,866.186L776,865.98ZM860,865.356L852.486,865.15L852.486,865.678L860,865.884L860,865.356ZM776,864.923L776,865.451L783.514,865.658L783.514,865.129L776,864.923ZM860,864.299L852.486,864.093L852.486,864.621L860,864.827L860,864.299ZM776,863.866L776,864.394L783.514,864.601L783.514,864.072L776,863.866ZM860,863.242L852.486,863.036L852.486,863.564L860,863.77L860,863.242ZM776,862.809L776,863.337L783.514,863.543L783.514,863.015L776,862.809ZM860,862.185L852.486,861.979L852.486,862.507L860,862.713L860,862.185ZM776,861.752L776,862.28L783.514,862.486L783.514,861.958L776,861.752ZM860,861.128L852.486,860.922L852.486,861.45L860,861.656L860,861.128ZM776,860.695L776,861.223L783.514,861.429L783.514,860.901L776,860.695ZM860,860.071L852.486,859.865L852.486,860.393L860,860.599L860,860.071ZM776,859.637L776,860.166L783.514,860.372L783.514,859.844L776,859.637ZM860,859.014L852.486,858.808L852.486,859.336L860,859.542L860,859.014ZM776,858.58L776,859.109L783.514,859.315L783.514,858.787L776,858.58ZM860,857.957L852.486,857.751L852.486,858.279L860,858.485L860,857.957ZM776,857.523L776,858.052L783.514,858.258L783.514,857.729L776,857.523ZM860,856.9L852.486,856.694L852.486,857.222L860,857.428L860,856.9ZM776,856.466L776,856.995L783.514,857.201L783.514,856.672L776,856.466ZM860,855.843L852.486,855.637L852.486,856.165L860,856.371L860,855.843ZM776,855.409L776,855.937L783.514,856.144L783.514,855.615L776,855.409ZM860,854.786L852.486,854.58L852.486,855.108L860,855.314L860,854.786ZM776,854.352L776,854.88L783.514,855.087L783.514,854.558L776,854.352ZM860,853.729L852.486,853.523C852.486,853.697 852.486,853.873 852.486,854.051L860,854.257L860,853.729ZM776,853.295L776,853.823L783.514,854.03L783.514,853.501L776,853.295ZM860,852.672L852.486,852.465L852.486,852.994L860,853.2L860,852.672ZM776,852.238L776,852.766L783.514,852.972L783.514,852.444L776,852.238ZM860,851.615L852.486,851.408L852.486,851.937L860,852.143L860,851.615ZM776,851.181L776,851.709L783.514,851.915L783.514,851.387L776,851.181ZM860,850.558L852.486,850.351L852.486,850.88L860,851.086L860,850.558ZM776,850.123L776,850.652L783.514,850.858L783.514,850.33L776,850.123ZM860,849.501L852.486,849.294L852.486,849.823L860,850.029L860,849.501ZM776,849.066L776,849.595L783.514,849.801L783.514,849.272L776,849.066ZM860,848.443L852.486,848.237L852.486,848.766L860,848.972L860,848.443ZM776,848.009L776,848.538L783.514,848.744L783.514,848.215L776,848.009ZM860,847.386L852.486,847.18L852.486,847.709L860,847.915L860,847.386ZM776,846.952L776,847.481L783.514,847.687L783.514,847.158L776,846.952ZM860,846.329L852.486,846.123L852.486,846.652L860,846.858L860,846.329ZM776,845.895L776,846.424L783.514,846.63L783.514,846.101L776,845.895ZM860,845.272L852.486,845.066L852.486,845.595L860,845.801L860,845.272ZM776,844.838L776,845.367L783.514,845.573L783.514,845.044L776,844.838ZM860,844.215L852.486,844.009L852.486,844.538L860,844.744L860,844.215ZM776,843.781L776,844.309L783.514,844.516L783.514,843.987L776,843.781ZM860,843.158L852.486,842.952L852.486,843.481L860,843.687L860,843.158ZM776,842.724L776,843.252L783.514,843.458L783.514,842.93L776,842.724ZM860,842.63L860,841.667L853,841.667L854.345,841.946L852.486,841.895L852.486,842.424L860,842.63ZM776,841.667L776,841.667L776,842.007C777.513,842.141 778.73,842.234 778.73,842.234C777.847,842.234 776.921,842.22 776,842.195L776,842.195L783.514,842.401L783.514,841.873L778.73,842.234L776,841.667ZM790,841.667L783,841.667L785.73,842.234L792.73,842.234L790,841.667ZM804,841.667L797,841.667L799.73,842.234L806.73,842.234L804,841.667ZM818,841.667L811,841.667L813.73,842.234L820.73,842.234L818,841.667ZM832,841.667L825,841.667L827.73,842.234L834.73,842.234L832,841.667ZM846,841.667L839,841.667L841.73,842.234L848.73,842.234L846,841.667Z" style="fill:rgb(30,237,116);fill-opacity:0.2;"/>
                </g>
                <g transform="matrix(0.992063,0,-0.784708,4.02414,1437.29,-3008.19)">
                    <rect x="776" y="841.667" width="84" height="331.333" style="fill:rgb(30,237,116);"/>
                </g>
            </g>
        </g>
    </g>
</svg>
